<svg id="tree" xmlns="http://www.w3.org/2000/svg" viewBox="0 0 1920 1080"><defs><style>.cls-1{fill:#defafb;}.cls-2{fill:#95f2f7;}.cls-3{fill:#4be9f4;}.cls-4{fill:#02e1f0;}.cls-5{fill:#fff;}.cls-6{opacity:0.8;}.cls-7{fill:#00f0b0;}.cls-8{fill:#00d69d;}.cls-9{fill:#009967;}.cls-10{fill:#007b53;}.cls-11{fill:#9bff4f;}.cls-12{fill:#5fe84a;}.cls-13{fill:#10c957;}.cls-14{fill:#0c9957;}.cls-15{fill:#00b57a;}.cls-16{fill:#eb5079;}.cls-17{fill:#ff82a3;}.cls-18{fill:#68cbde;}.cls-19{fill:#6ee8ff;}.cls-20{fill:#02bfcc;}</style></defs><title>ns-game-bg-design_flattened</title><rect class="cls-1" y="664.18" width="1920" height="221.39"/><rect class="cls-2" y="442.78" width="1920" height="221.4"/><rect class="cls-3" y="221.39" width="1920" height="221.39"/><rect class="cls-4" width="1920" height="221.39"/><path class="cls-5" d="M816.12,663l-.51,1.15C779.91,744.49,712,809.94,630.37,842.58q-7.36,3-14.85,5.53C549.14,871.19,476.58,874,406.79,864.45l-.45-.06c-14.69-2-29.28-4.55-43.78-7.53h0q-10.44-2.13-20.81-4.57h0C289.29,840,238,822.48,187.4,803.79c-47-17.35-97.68-39.66-124.1-80.43a112,112,0,0,1-9.94-19.09,154,154,0,0,1-7-23.41c-1.25-5.51-2.34-11.1-3.4-16.68C39,643.46,35.27,622.82,24,606a68.77,68.77,0,0,0-4.61-6.14c-5.57-6.62-12.32-12-19.37-17.16V303.87c56.3-8.8,97.18,93.48,97.52,135.44,8.34-3,17.21-1.18,24.55,3.47C133.9,450.26,141.75,465,137,478.49c11.63-17.41,43.34-13.54,50.44,6.15,5.3-16.87,16.54-31.59,30.92-41.86A81,81,0,0,1,256.12,428c19.72-2.24,40,3.45,56.25,14.78a80.07,80.07,0,0,1,23.39,25c7.29-13.72,29.91-12.95,38.38-.95a89.49,89.49,0,0,1-6.54-24.09c-4.19-32.47,8.32-67.44,31.37-91.44,30.34-31.58,75.46-45.82,119.25-46.31,56-.62,112.69,20.49,151.81,60.55a182.06,182.06,0,0,1,44.55,77.2c7.08,25,8.68,51.42,3.65,76.94,8-6.73,20.76-6.8,28.79-.17s10.4,19.21,5.31,28.3c23.87-18.51,62-.56,73.17,27.5S828.29,635.38,816.12,663Z"/><path class="cls-5" d="M1920,235.93V748.76c-5.84,7.25-11.51,14.7-17.24,22.08-7.27,9.34-14.67,18.58-22.71,27.18q-2,2.07-4,4.1c-.24.26-.49.51-.74.76l-.28.27q-7.07,7.08-14.71,13.33c-45.52,37.44-105.09,54.87-163.5,68.76l-1.38.33q-6.62,1.57-13.21,3.09l-10.69,2.46c-19.3,4.39-38.8,8.65-58.42,12.59l-8.15,1.61-2.49.48c-42.4,8.22-85.3,14.75-127.92,17.66q-15.3,1-30.53,1.43-2.89.08-5.79.12-14.08.22-28.09-.17-4.82-.15-9.61-.37h0l-2.75-.13-1.52-.09-1,0-2.61-.15c-1.92-.12-3.85-.25-5.77-.39-33.2-2.39-65.9-7.9-97.69-17.49q-6.94-2.08-13.84-4.46-12.64-4.32-25.07-9.58l-2.58-1.1c-.45-.2-.91-.39-1.36-.6l-.64-.28-.06,0-.9-.4-1.39-.62c-2.56-1.14-5.11-2.33-7.64-3.54l-1.78-.86c-3-1.46-6-3-9-4.53q-7.07-3.7-13.94-7.74-11.4-6.69-22.21-14.32A275.07,275.07,0,0,1,1140,814.28q-3.46-4-6.76-8.12t-6.37-8.38a226.5,226.5,0,0,1-13-20c-.75-1.3-1.49-2.62-2.22-3.94-.27-.49-.54-1-.8-1.48q-1.12-2.07-2.18-4.17c-1.36-2.66-2.66-5.36-3.9-8.08-13.59-29.93-20.07-63.37-17.85-95.9.17-2.61.41-5.22.7-7.81a164.22,164.22,0,0,1,16.46-56.07,149.86,149.86,0,0,1,48.76-55.18c29.32-20.14,65.39-29.92,100.27-23.34,65.35,12.32,109,72.49,145.73,127.92,16-41.59,56.59-72.59,100.92-77s90.26,18,114,55.69c-2.45-17.34,16.47-33.94,33.34-29.25-7.4-22.77,4.11-50.11,25.56-60.73-15.46-29.46-22.81-62.51-22.73-95.66.16-61.85,26.19-124.07,73.65-164.08C1771.48,238.38,1854.64,216.83,1920,235.93Z"/><g class="cls-6"><path class="cls-2" d="M714,569a31.1,31.1,0,0,0-59.49-15.54,31.1,31.1,0,0,1,62,3.23A30.77,30.77,0,0,1,714,569Z"/></g><g class="cls-6"><path class="cls-2" d="M653.05,554.8c.06-.6.09-1.21.09-1.84a17.73,17.73,0,0,0-34-7,17.73,17.73,0,1,1,33.92,8.86Z"/></g><g class="cls-6"><path class="cls-2" d="M632.92,447.75a31.1,31.1,0,0,0-59.49-15.54,31.1,31.1,0,0,1,62,3.23A30.77,30.77,0,0,1,632.92,447.75Z"/></g><g class="cls-6"><path class="cls-2" d="M1912.4,327.35a37.46,37.46,0,0,0-2.82-3,39.44,39.44,0,0,0-63.45,44.06,39.44,39.44,0,0,1,57.17-54.18A39,39,0,0,1,1912.4,327.35Z"/></g><g class="cls-6"><path class="cls-2" d="M1840.86,351.58c-.39-.45-.8-.89-1.24-1.31a17.47,17.47,0,0,0-28.1,19.51,17.46,17.46,0,0,1,25.32-24A17.28,17.28,0,0,1,1840.86,351.58Z"/></g><g class="cls-6"><path class="cls-2" d="M1711.08,476.89a9.08,9.08,0,0,0-.68-.71,9.5,9.5,0,0,0-15.28,10.61,9.5,9.5,0,1,1,16-9.9Z"/></g><g class="cls-6"><path class="cls-2" d="M1810.44,355.26a20.58,20.58,0,0,0-1.44-1.52,20.23,20.23,0,0,0-32.55,22.6,20.23,20.23,0,0,1,29.33-27.79A20,20,0,0,1,1810.44,355.26Z"/></g><g class="cls-6"><path class="cls-2" d="M1707,568.73a18.79,18.79,0,0,0-1.44-1.53A20.23,20.23,0,0,0,1673,589.81a20.23,20.23,0,0,1,29.33-27.8A20,20,0,0,1,1707,568.73Z"/></g><g class="cls-6"><path class="cls-2" d="M1618.14,641.59a12,12,0,0,0-.62-1.31,13.94,13.94,0,0,0-26.17,7.82,13.95,13.95,0,0,1,25.18-11.91A13.73,13.73,0,0,1,1618.14,641.59Z"/></g><g class="cls-6"><path class="cls-2" d="M1432.43,670.72c-.19-.44-.39-.87-.62-1.3a13.95,13.95,0,0,0-26.18,7.81,13.95,13.95,0,1,1,26.8-6.51Z"/></g><g class="cls-6"><path class="cls-2" d="M1567.79,723.86c-.12-.46-.27-.92-.44-1.38a13.95,13.95,0,0,0-27,4.36,13.95,13.95,0,1,1,27.41-3Z"/></g><g class="cls-6"><path class="cls-2" d="M1574.7,712.91c-.07-.23-.14-.47-.23-.7a7.13,7.13,0,0,0-13.78,2.23,7.13,7.13,0,0,1,13.55-4.37A7.24,7.24,0,0,1,1574.7,712.91Z"/></g><g class="cls-6"><path class="cls-2" d="M1541.58,719.38q-.07-.28-.18-.57a5.73,5.73,0,0,0-11.07,1.79,5.72,5.72,0,0,1,10.88-3.51A5.57,5.57,0,0,1,1541.58,719.38Z"/></g><g class="cls-6"><path class="cls-2" d="M1496.8,685q-.08-.29-.18-.57a5.73,5.73,0,0,0-11.07,1.79,5.72,5.72,0,0,1,10.88-3.51A5.57,5.57,0,0,1,1496.8,685Z"/></g><g class="cls-6"><path class="cls-2" d="M1583.13,692.2a4.23,4.23,0,0,0-.19-.57,5.73,5.73,0,0,0-11.07,1.79,5.73,5.73,0,0,1,10.89-3.51A5.92,5.92,0,0,1,1583.13,692.2Z"/></g><g class="cls-6"><path class="cls-2" d="M1882.56,631.23q-.07-.29-.18-.57a5.73,5.73,0,0,0-11.08,1.79,5.73,5.73,0,0,1,10.89-3.51A5.57,5.57,0,0,1,1882.56,631.23Z"/></g><g class="cls-6"><path class="cls-2" d="M1746.29,604.09q-.07-.29-.18-.57a5.73,5.73,0,0,0-11.07,1.79,5.72,5.72,0,0,1,10.88-3.51A5.57,5.57,0,0,1,1746.29,604.09Z"/></g><g class="cls-6"><path class="cls-2" d="M1817.76,525.59q-.08-.29-.18-.57a5.73,5.73,0,0,0-11.08,1.79,5.73,5.73,0,1,1,11.26-1.22Z"/></g><g class="cls-6"><path class="cls-2" d="M1630.49,635.09c-.1-.23-.2-.46-.32-.68a7.26,7.26,0,0,0-13.62,4.06,7.25,7.25,0,1,1,13.94-3.38Z"/></g><g class="cls-6"><path class="cls-2" d="M1431.82,656.47a6.94,6.94,0,0,0-.32-.68,7.26,7.26,0,0,0-13.62,4.07,7.26,7.26,0,0,1,13.1-6.2A7.12,7.12,0,0,1,1431.82,656.47Z"/></g><g class="cls-6"><path class="cls-2" d="M1772.23,662.32a20.31,20.31,0,0,0-.54-2.14,21.26,21.26,0,0,0-41.45,4,21.26,21.26,0,1,1,42-1.86Z"/></g><g class="cls-6"><path class="cls-2" d="M1822.69,480.12c-.14-.68-.31-1.35-.51-2a20.21,20.21,0,0,0-39.4,3.8,20.2,20.2,0,1,1,39.91-1.77Z"/></g><g class="cls-6"><path class="cls-2" d="M1832.24,466.24c-.06-.28-.13-.55-.21-.83a8.28,8.28,0,0,0-16.14,1.55,8.28,8.28,0,1,1,16.35-.72Z"/></g><g class="cls-6"><path class="cls-2" d="M1791,649.54a11.63,11.63,0,0,0-.32-1.26,12.48,12.48,0,0,0-24.34,2.35,12.48,12.48,0,1,1,24.66-1.09Z"/></g><g class="cls-6"><path class="cls-2" d="M1735.16,649.92a7.58,7.58,0,0,0-.21-.82,8.15,8.15,0,0,0-15.89,1.53,8.15,8.15,0,0,1,15.78-4A8,8,0,0,1,1735.16,649.92Z"/></g><g class="cls-6"><path class="cls-2" d="M1910.09,553.84a33.52,33.52,0,0,0-2.47-2.6,34.64,34.64,0,0,0-55.74,38.7,34.64,34.64,0,1,1,58.21-36.1Z"/></g><g class="cls-6"><path class="cls-2" d="M1902.23,525.31a17.63,17.63,0,0,0-1.46-1.54,20.46,20.46,0,0,0-32.92,22.86,20.46,20.46,0,0,1,29.66-28.12A20.15,20.15,0,0,1,1902.23,525.31Z"/></g><g class="cls-6"><path class="cls-2" d="M1849.36,575.13a9.79,9.79,0,0,0-16.45,10.2,9.79,9.79,0,0,1,14.19-13.45A9.54,9.54,0,0,1,1849.36,575.13Z"/></g><g class="cls-6"><path class="cls-2" d="M1750,513.35a9.61,9.61,0,0,0-.7-.73,9.79,9.79,0,0,0-15.75,10.94A9.79,9.79,0,1,1,1750,513.35Z"/></g><g class="cls-6"><path class="cls-2" d="M1744.6,357.53c-.21-.25-.45-.5-.69-.74a9.79,9.79,0,0,0-15.76,10.94,9.79,9.79,0,0,1,14.2-13.45A9.61,9.61,0,0,1,1744.6,357.53Z"/></g><g class="cls-6"><path class="cls-2" d="M1713,554.74a7.85,7.85,0,0,0-13.19,8.18,7.85,7.85,0,0,1,11.38-10.79A7.68,7.68,0,0,1,1713,554.74Z"/></g><g class="cls-6"><path class="cls-2" d="M649.82,426.05a10.74,10.74,0,0,0,.06-1.14,11,11,0,0,0-21.08-4.35,11,11,0,0,1,21.92,1.14A10.85,10.85,0,0,1,649.82,426.05Z"/></g><g class="cls-6"><path class="cls-2" d="M482.75,391.15a10.6,10.6,0,0,0,.06-1.14,11,11,0,0,0-21.07-4.35,11,11,0,0,1,21.91,1.14A10.85,10.85,0,0,1,482.75,391.15Z"/></g><g class="cls-6"><path class="cls-2" d="M614,624.3c0-.25,0-.5,0-.76a7.28,7.28,0,0,0-14-2.88A7.28,7.28,0,1,1,614,624.3Z"/></g><g class="cls-6"><path class="cls-2" d="M572,433.58c.06-.61.09-1.22.09-1.84a17.73,17.73,0,0,0-34-7A17.73,17.73,0,1,1,572,433.58Z"/></g><g class="cls-6"><path class="cls-2" d="M389.45,489.3c-.33-.5-.68-1-1.06-1.47a17.49,17.49,0,0,0-30.51,15.6,17.49,17.49,0,1,1,31.57-14.13Z"/></g><g class="cls-6"><path class="cls-2" d="M436.44,464.58c-.52-.8-1.08-1.59-1.69-2.36a28,28,0,0,0-48.88,25,28,28,0,0,1,45.41-32.72A27.71,27.71,0,0,1,436.44,464.58Z"/></g><g class="cls-6"><path class="cls-2" d="M576.2,663a29,29,0,0,0-.65-2.84,28,28,0,0,0-54.75,4A28,28,0,1,1,576.2,663Z"/></g><g class="cls-6"><path class="cls-2" d="M215.79,542.47a27.29,27.29,0,0,0,.35-2.88,28,28,0,0,0-52.9-14.67,28,28,0,1,1,52.55,17.55Z"/></g><g class="cls-6"><path class="cls-2" d="M40.37,390.27a27.92,27.92,0,0,1-3,10.92c.16-.95.28-1.91.35-2.89A28.06,28.06,0,0,0,0,370.13v-6.86A28,28,0,0,1,40.33,386.1c.05.52.08,1,.08,1.56A22.8,22.8,0,0,1,40.37,390.27Z"/></g><g class="cls-6"><path class="cls-2" d="M51.71,395.3a4.91,4.91,0,0,0,.09-.77,7.48,7.48,0,0,0-14.11-3.92,7.48,7.48,0,0,1,14.83,1.78A7.3,7.3,0,0,1,51.71,395.3Z"/></g><g class="cls-6"><path class="cls-2" d="M243.19,540a13.86,13.86,0,0,0,.17-1.46,14.14,14.14,0,0,0-26.69-7.4A14.14,14.14,0,1,1,243.19,540Z"/></g><g class="cls-6"><path class="cls-2" d="M108.41,486.76c.08-.48.14-1,.18-1.45a14.15,14.15,0,0,0-26.7-7.41,14.14,14.14,0,1,1,26.52,8.86Z"/></g><g class="cls-6"><path class="cls-2" d="M71.63,540c.08-.48.14-1,.18-1.46a14.15,14.15,0,0,0-26.7-7.4A14.14,14.14,0,1,1,71.63,540Z"/></g><g class="cls-6"><path class="cls-2" d="M82.71,539.46a3.83,3.83,0,0,0,.07-.58,5.67,5.67,0,0,0-10.7-3,5.67,5.67,0,0,1,11.24,1.34A5.47,5.47,0,0,1,82.71,539.46Z"/></g><g class="cls-6"><path class="cls-2" d="M84.86,473.77a8,8,0,0,0,.11-.87,8.47,8.47,0,0,0-16-4.43,8.47,8.47,0,0,1,16.79,2A8.28,8.28,0,0,1,84.86,473.77Z"/></g><g class="cls-6"><path class="cls-2" d="M118.05,484.64a4.78,4.78,0,0,0,.06-.53,5.1,5.1,0,0,0-9.63-2.67,5.1,5.1,0,1,1,9.57,3.2Z"/></g><g class="cls-6"><path class="cls-2" d="M525.52,648.94q-.46-.68-1-1.32A15.94,15.94,0,0,0,497,662.31a15.93,15.93,0,0,1,25.49-19A15.77,15.77,0,0,1,525.52,648.94Z"/></g><g class="cls-6"><path class="cls-2" d="M369.34,604c-.12-.7-.28-1.39-.47-2.09a20.64,20.64,0,0,0-40.31,2.93,20.63,20.63,0,0,1,40.17-9.16A20.39,20.39,0,0,1,369.34,604Z"/></g><g class="cls-6"><path class="cls-2" d="M332,593.66a10.69,10.69,0,0,0-.73-1A11.73,11.73,0,0,0,311,603.51a11.73,11.73,0,1,1,21-9.85Z"/></g><g class="cls-6"><path class="cls-2" d="M389.45,571.9c-.34-.49-.69-1-1.09-1.45a17.47,17.47,0,0,0-30.18,16.11,17.46,17.46,0,0,1,27.94-20.88A17.27,17.27,0,0,1,389.45,571.9Z"/></g><path class="cls-7" d="M1093.81,507.4C1059.6,485.53,1023.53,463,983,460c-57.93-4.34-110.21,31.57-157.82,64.85C716,601.2,602.53,672.33,481.45,728.06c-20.16,9.28-41,18.43-56.94,33.84s-26.3,38.8-19.92,60.06c7.37,24.56,33.44,38,57.85,45.93,54.38,17.55,112.17,20.87,169.23,24,258.84,14.23,518.62,27.5,777,7.15,36-2.83,74.18-7.19,102.36-29.75,20.21-16.19,39.36-56.37,22.68-81.19-6.89-10.24-19.22-12.83-29.7-18.6-19.58-10.79-38.13-24.36-57-36.4L1222.85,589.84Z"/><path class="cls-5" d="M483.48,287.43c16.28-.32,32.68-3.82,49-4.15a6.22,6.22,0,0,1,8.87-8.61c.66-6.23,3.9-12.3,9.18-15.66s12.59-3.63,17.71,0,7.31,11.11,4.29,16.6a3.62,3.62,0,0,1,5.76-1.85,7.22,7.22,0,0,1,8.71-3.57,8.84,8.84,0,0,1,5.64,7.92c.15,3.44-1.95,6.2-4.58,8.42H530.43Z"/><path class="cls-5" d="M1314.85,545.33h126.34l-60.71-4.55c.62-1-1.82-.16-2.2-1.26a2.26,2.26,0,0,0-2.9,1,6.42,6.42,0,0,0,4.49-4.1,11.87,11.87,0,0,0,.35-6.26,17.29,17.29,0,0,0-5.94-10.58,12.76,12.76,0,0,0-11.66-2.41,10.19,10.19,0,0,0-7.08,9.21,4.7,4.7,0,0,0-6.61.52,2.8,2.8,0,0,0-3.72,1.3,10.18,10.18,0,0,0-4.23-10.61,13.51,13.51,0,0,0-11.67-1.39,20.25,20.25,0,0,0-9.61,7.16,14.94,14.94,0,0,0-3,6.21,7.79,7.79,0,0,0,1.59,6.54,4.88,4.88,0,0,0-3.79,5l1.07.46a2.33,2.33,0,0,0-2.14,1.56C1313.11,544,1314.1,544.75,1314.85,545.33Z"/><path class="cls-5" d="M1183.92,462.72H1075.37c-.42.52,2.74-1.54,2.32-1,3.08-3.21,2.59-3.83,5.67-7,4.19-4.35,8.45-8.76,13.66-11.81s11.6-4.61,17.38-2.82l1.87,6.08a10.24,10.24,0,0,1,13.76,2.92c-.16-.25,13-6.39,14-6.86a122.56,122.56,0,0,1,13.1-5c4-1.27,8.77-3.2,13-3.4a1.81,1.81,0,0,1,1.54.62,2.46,2.46,0,0,1,.39,1.26,22.78,22.78,0,0,1-.74,7.25c-.3,1.4-1.3,6.72-2.72,7.47l5.45-2.87.88,5a289.23,289.23,0,0,0,69.43,8.69,61.35,61.35,0,0,1-10.75,1.47Z"/><path class="cls-8" d="M1223.09,661.16l-2.58-1.76c-16.89-11.56-34.55-23.43-54.8-26.4-27.33-4-53.31,8.78-76.17,22.25-23.73,14-47.54,27.75-70.56,43a1099.23,1099.23,0,0,0-140.2,110.28c-6.32,5.85-12.94,12.43-14.24,21-1.41,9.28,4.18,18.54,11.81,24s17,7.82,26.21,9.71c34.9,7.15,70.63,9.11,106.2,11.05,115.24,6.28,230.54,12.57,346,12.47,16.18,0,32.65-.19,48.07-5.11,18.82-6,35.13-20.79,38-41,3.35-24-12.71-39.14-31-51.62Z"/><path class="cls-8" d="M935.12,724.65q-4.33-2.68-8.73-5.06c-47.27-25.52-88.13,7.36-126.5,34.07l-64.41,44.81c-12.16,8.46-15.11,24,.79,30.72,6.25,2.63,13.25,2.69,20,2.71l138.52.32c45,.11,93.07,4.88,137.7-.11.13,0-20-34-22.48-37.13C989.69,769.52,963.61,742.32,935.12,724.65Z"/><path class="cls-9" d="M1201.49,775,1195,811.4c-.38,2.12.44,4.32,1.61,4.32h13c1.16,0,2-2.2,1.6-4.32L1204.7,775C1204.17,772.1,1202,772.1,1201.49,775Z"/><path class="cls-9" d="M1045.37,768.33l-6.52,36.37c-.38,2.12.44,4.32,1.61,4.32h13c1.16,0,2-2.2,1.6-4.32l-6.51-36.37C1048.05,765.4,1045.89,765.4,1045.37,768.33Z"/><path class="cls-9" d="M1029.27,789.76,1026,808c-.19,1.06.22,2.16.8,2.16h6.52c.58,0,1-1.1.8-2.16l-3.26-18.19C1030.61,788.3,1029.53,788.3,1029.27,789.76Z"/><path class="cls-9" d="M958.4,772.06l-6.52,36.37c-.38,2.12.44,4.32,1.61,4.32h13c1.17,0,2-2.2,1.61-4.32l-6.52-36.37C961.08,769.13,958.92,769.13,958.4,772.06Z"/><path class="cls-9" d="M694.21,764.72l-6.52,36.38c-.38,2.12.44,4.32,1.6,4.32h13c1.17,0,2-2.2,1.61-4.32l-6.52-36.38C696.89,761.79,694.73,761.79,694.21,764.72Z"/><path class="cls-9" d="M1311.68,783.71l-4.48,25c-.26,1.46.3,3,1.1,3h9c.8,0,1.36-1.51,1.1-3l-4.48-25C1313.52,781.69,1312,781.69,1311.68,783.71Z"/><path class="cls-9" d="M1394.16,786.24l-3,17c-.17,1,.21,2,.75,2H1398c.55,0,.93-1,.75-2l-3-17C1395.42,784.87,1394.41,784.87,1394.16,786.24Z"/><path class="cls-9" d="M843.42,776.51l-4.48,25c-.26,1.45.3,3,1.1,3h9c.8,0,1.37-1.52,1.11-3l-4.48-25C845.27,774.49,843.78,774.49,843.42,776.51Z"/><path class="cls-9" d="M1283,761.1l-9,50c-.52,2.91.6,5.94,2.21,5.94h17.92c1.6,0,2.72-3,2.2-5.94l-9-50C1286.73,757.07,1283.76,757.07,1283,761.1Z"/><path class="cls-9" d="M1177.2,783l-4.71,26.32c-.27,1.53.32,3.13,1.16,3.13h9.43c.84,0,1.43-1.6,1.16-3.13L1179.53,783C1179.15,780.9,1177.58,780.9,1177.2,783Z"/><path class="cls-10" d="M584.15,778.84,578.67,799c-.32,1.17.37,2.39,1.35,2.39h11c1,0,1.67-1.22,1.35-2.39l-5.48-20.17A1.36,1.36,0,0,0,584.15,778.84Z"/><path class="cls-10" d="M596.58,767.78l-5.48,30.6c-.32,1.78.37,3.63,1.34,3.63h11c1,0,1.67-1.85,1.35-3.63l-5.48-30.6C598.83,765.32,597,765.32,596.58,767.78Z"/><path class="cls-10" d="M656.21,766.18l-5.47,30.59c-.32,1.78.36,3.63,1.34,3.63h11c1,0,1.67-1.85,1.35-3.63l-5.48-30.59C658.47,763.71,656.66,763.71,656.21,766.18Z"/><path class="cls-10" d="M890.64,766.36l-6,33.58c-.35,1.95.4,4,1.48,4h12c1.07,0,1.83-2,1.48-4l-6-33.58C893.12,763.65,891.13,763.65,890.64,766.36Z"/><path class="cls-10" d="M880,772.69l-6,33.59c-.35,2,.41,4,1.48,4h12c1.08,0,1.83-2,1.48-4l-6-33.59C882.47,770,880.48,770,880,772.69Z"/><path class="cls-10" d="M1482,764.85l-6,33.58c-.35,2,.41,4,1.48,4h12c1.08,0,1.83-2,1.48-4l-6-33.58C1484.49,762.14,1482.5,762.14,1482,764.85Z"/><path class="cls-10" d="M1454.38,774.5l-4.81,26.9c-.28,1.56.32,3.19,1.18,3.19h9.64c.86,0,1.46-1.63,1.18-3.19l-4.81-26.9C1456.37,772.33,1454.77,772.33,1454.38,774.5Z"/><path class="cls-10" d="M1131.17,773.9l-6.52,36.38c-.37,2.11.44,4.32,1.61,4.32h13c1.16,0,2-2.21,1.6-4.32l-6.51-36.38C1133.85,771,1131.69,771,1131.17,773.9Z"/><path class="cls-10" d="M1105.58,755.62l-8.81,49.2c-.52,2.86.59,5.84,2.16,5.84h17.63c1.57,0,2.68-3,2.17-5.84l-8.81-49.2C1109.21,751.66,1106.29,751.66,1105.58,755.62Z"/><path class="cls-10" d="M785.06,754l-7.65,42.72c-.44,2.49.52,5.07,1.89,5.07h15.3c1.37,0,2.33-2.58,1.88-5.07L788.83,754C788.21,750.57,785.68,750.57,785.06,754Z"/><path class="cls-10" d="M831.57,772.44l-4.88,29.95c-.28,1.74.33,3.55,1.2,3.55h9.75c.87,0,1.48-1.81,1.2-3.55L834,772.44C833.57,770,832,770,831.57,772.44Z"/><path class="cls-10" d="M637.18,787.51l-2.3,12.87c-.14.75.15,1.53.56,1.53h4.61c.42,0,.71-.78.57-1.53l-2.3-12.87C638.13,786.47,637.37,786.47,637.18,787.51Z"/><path class="cls-11" d="M772.58,797.31c-125.46-4.77-257.36-10.27-369.5,46.18,29.93,30.73,73.06,44,114.49,55.15,243.91,65.47,497.58,95,749.94,85.41,43.49-1.65,87.45-4.54,128.94-17.68s80.78-37.58,104-74.36c18.32-29,30.27-83.12-14.39-89.07-52.11-7-110.72,1.84-163.36,2.32q-175.42,1.59-350.84-2.08Q872.21,801.1,772.58,797.31Z"/><rect class="cls-11" x="148.64" y="509.95" width="106.7" height="47.7" rx="23.85"/><rect class="cls-11" x="177.84" y="483.72" width="64" height="37.02" rx="17.75"/><rect class="cls-11" x="153.7" y="494.81" width="32.18" height="23.5" rx="11.75"/><path class="cls-12" d="M196.94,587a1.61,1.61,0,0,1-1.54-1.68V516.76a1.55,1.55,0,1,1,3.09,0v68.51A1.61,1.61,0,0,1,196.94,587Z"/><path class="cls-12" d="M196.94,526.89a1.47,1.47,0,0,1-.73-.19l-9.51-5.1a1.55,1.55,0,0,1,1.46-2.73l9.51,5.11a1.54,1.54,0,0,1,.64,2.09A1.56,1.56,0,0,1,196.94,526.89Z"/><path class="cls-12" d="M196.94,543a1.54,1.54,0,0,1-.78-2.88l15.77-9.17a1.37,1.37,0,0,1,.65-.2l5.58-.47a1.55,1.55,0,0,1,.26,3.08l-5.23.44-15.47,9A1.55,1.55,0,0,1,196.94,543Z"/><path class="cls-12" d="M196.94,553.22a1.55,1.55,0,0,1-.77-.2l-11.83-6.79a1.55,1.55,0,0,1-.77-1.34v-4.75a1.55,1.55,0,1,1,3.09,0V544l11.05,6.34a1.55,1.55,0,0,1-.77,2.89Z"/><path class="cls-12" d="M185.11,546.44h-5.46a1.55,1.55,0,1,1,0-3.1h5.46a1.55,1.55,0,1,1,0,3.1Z"/><path class="cls-12" d="M212.71,533.8a1.55,1.55,0,0,1-1.55-1.54v-5.33a1.55,1.55,0,0,1,3.1,0v5.33A1.54,1.54,0,0,1,212.71,533.8Z"/><path class="cls-12" d="M626,884.13q-.06.72-.15,1.44a41.89,41.89,0,0,1-1.23,5.94c-.19.68-.4,1.37-.62,2.07a69.16,69.16,0,0,1-3.74,9.1A113.21,113.21,0,0,1,608,921.88c-2.78,3.57-5.75,7-8.85,10.31-.69.75-1.41,1.49-2.12,2.22-.87.88-1.74,1.75-2.62,2.6a122.25,122.25,0,0,1-10.54,9.1c-.34.26-.68.52-1,.77a74.66,74.66,0,0,1-9.36,6c-.52.28-1,.55-1.57.8s-1.31.66-2,1c-10.37,4.87-21.72,7.56-33.39,8.85a197.45,197.45,0,0,1-29.59.83c-8-.32-15.86-1-23.43-1.71A1286.49,1286.49,0,0,1,344.87,941q-41.16-8.62-81.78-19.47l-3.42-.9q-43.86-11.71-87-25.47-14.7-4.65-29.38-9.61C91.93,868.12,41.68,846.9,0,814.52V558.11a283.08,283.08,0,0,1,31.29-2.61c62.7-2.41,127.83,2.73,183.06,30.7,38.34,19.41,69.76,48.71,104.93,72.84q3.81,2.61,7.68,5.14c42.77,28.06,90.28,49.05,136.29,72.39,12,6.09,23.92,12.34,35.61,18.91,17.32,9.74,44.19,25.31,68.78,44.07,19.23,14.66,37.08,31.27,47.88,48.56,5.14,8.23,8.69,16.61,10,25A45.67,45.67,0,0,1,626,884.13Z"/><path class="cls-12" d="M1413.05,944.45c-2,12.32-11.3,22.08-20.87,30.08a230.82,230.82,0,0,1-43.83,28.58h0c-25.51,13-53.25,21.94-81.15,28.58-33.27,7.91-67.15,12.76-100.87,18.53-10.07,1.72-20.12,3.52-30.14,5.52h0l-5.37,1.08c-37.1,7.64-74.28,18.17-111.66,23.18h-75.8c-15.19-2.69-30-7.74-42.11-17.12a68.89,68.89,0,0,1-8-7.26c-7.89-8.4-13.27-18.58-12.59-28.16.46-6.48,3.69-12.69,10.79-17.89q2.75-2,5.61-4c1.15-.78,2.31-1.55,3.49-2.31a258.09,258.09,0,0,1,62.76-29c6.4-2,12.86-3.74,19.36-5.39,22.55-5.71,45.49-10,67.78-16.65,39.23-11.75,75.79-30.79,113-47.79s76.13-32.21,116.94-35.49a175.89,175.89,0,0,1,56.14,4.29c21.6,5.34,41.8,15.22,58,30.39C1405.91,914.29,1415.54,929.09,1413.05,944.45Z"/><path class="cls-12" d="M990.75,975.85c4.27,3.81,8.83,9,7.28,14.52-1,3.75-4.62,6.14-8,8.11-49.44,29-110.85,36.74-165.95,21-24.19-6.9-155.91-79.22-103.66-104.51,51.06-24.71,130.26-11.11,180.77,7.57A281.44,281.44,0,0,1,990.75,975.85Z"/><path class="cls-12" d="M648.83,820.66h-1a1.5,1.5,0,0,0,.2-.75h0a1.54,1.54,0,0,0-1.54-1.54h-1.3a1.6,1.6,0,0,0-.39,0v-.69a1.54,1.54,0,0,0-1.55-1.55h-4.39a1.54,1.54,0,0,0-1.55,1.55v2.18a1.61,1.61,0,0,0,.2.75h-5a1.54,1.54,0,0,0-1.54,1.54v2.18a1.54,1.54,0,0,0,1.54,1.55h16.35a1.54,1.54,0,0,0,1.54-1.55V822.2A1.54,1.54,0,0,0,648.83,820.66Z"/><path class="cls-12" d="M759.13,862.07h-1.94a3,3,0,0,0,.39-1.46h0a3,3,0,0,0-3-3H752a3.18,3.18,0,0,0-.77.11v-1.36a3,3,0,0,0-3-3h-8.57a3,3,0,0,0-3,3v4.26a3,3,0,0,0,.38,1.46h-9.81a3,3,0,0,0-3,3v4.26a3,3,0,0,0,3,3h31.89a3,3,0,0,0,3-3v-4.26A3,3,0,0,0,759.13,862.07Z"/><path class="cls-12" d="M1212.41,867.37h-5.72a1.7,1.7,0,0,0,.13-.64v-1.62a1.72,1.72,0,0,0-1.73-1.73h-4.15a1.83,1.83,0,0,0-.52.09v-3.63a1.72,1.72,0,0,0-1.72-1.72h-10.18a1.72,1.72,0,0,0-1.72,1.72v4.43h-.44a1.72,1.72,0,0,0-1.72,1.72v1.38h-2.33a1.72,1.72,0,0,0-1.73,1.73v1.62a1.72,1.72,0,0,0,1.73,1.72h30.1a1.72,1.72,0,0,0,1.72-1.72V869.1A1.72,1.72,0,0,0,1212.41,867.37Zm-13.71,0a1.74,1.74,0,0,0,.61-.11l0,.11Z"/><path class="cls-12" d="M1381.76,826.74H1376a1.7,1.7,0,0,0,.13-.64v-1.63a1.72,1.72,0,0,0-1.72-1.72h-4.16a1.83,1.83,0,0,0-.52.09v-3.63a1.72,1.72,0,0,0-1.72-1.72h-10.18a1.72,1.72,0,0,0-1.72,1.72v4.43h-.44a1.72,1.72,0,0,0-1.72,1.72v1.38h-2.33a1.72,1.72,0,0,0-1.72,1.72v1.63a1.72,1.72,0,0,0,1.72,1.72h30.1a1.73,1.73,0,0,0,1.73-1.72v-1.63A1.73,1.73,0,0,0,1381.76,826.74Zm-13.71,0a1.74,1.74,0,0,0,.61-.11.76.76,0,0,0,0,.11Z"/><rect class="cls-12" x="1216.75" y="868.38" width="7.65" height="4.07" rx="2.03"/><rect class="cls-12" x="1070.77" y="899.53" width="18.12" height="4.07" rx="2.03"/><rect class="cls-12" x="1020.36" y="935.06" width="5.57" height="4.07" rx="2.03"/><rect class="cls-12" x="775.56" y="865.4" width="10.39" height="6.95" rx="3.47"/><rect class="cls-12" x="619.41" y="821.99" width="9.37" height="3.71" rx="1.85"/><rect class="cls-12" x="1174.54" y="824.71" width="7.65" height="4.07" rx="2.03"/><rect class="cls-12" x="1193.53" y="824.59" width="19.11" height="4.07" rx="2.03"/><ellipse class="cls-12" cx="1093.35" cy="849.69" rx="6.86" ry="1.65"/><ellipse class="cls-12" cx="1285.25" cy="826.74" rx="6.86" ry="1.65"/><rect class="cls-13" x="1722.21" y="601.68" width="143.09" height="63.97" rx="31.98"/><rect class="cls-13" x="1740.33" y="566.49" width="85.82" height="49.65" rx="23.8"/><rect class="cls-13" x="1815.37" y="581.37" width="43.15" height="31.51" rx="15.76"/><path class="cls-12" d="M1800.53,704.93a2.17,2.17,0,0,0,2.08-2.25V610.81a2.08,2.08,0,1,0-4.15,0v91.87A2.17,2.17,0,0,0,1800.53,704.93Z"/><path class="cls-12" d="M1800.53,624.38a2.15,2.15,0,0,0,1-.24l12.76-6.85a2.08,2.08,0,0,0-2-3.66l-12.75,6.85a2.07,2.07,0,0,0,1,3.9Z"/><path class="cls-12" d="M1800.53,646a2.08,2.08,0,0,0,1-3.87l-21.14-12.29a2.1,2.1,0,0,0-.87-.27l-7.48-.63a2.08,2.08,0,0,0-.35,4.14l7,.58,20.74,12.06A2.08,2.08,0,0,0,1800.53,646Z"/><path class="cls-12" d="M1800.53,659.7a2,2,0,0,0,1-.28l15.87-9.1a2.08,2.08,0,0,0,1-1.8v-6.37a2.08,2.08,0,0,0-4.15,0v5.17l-14.82,8.51a2.07,2.07,0,0,0,1,3.87Z"/><path class="cls-12" d="M1816.39,650.6h7.33a2.08,2.08,0,0,0,0-4.15h-7.33a2.08,2.08,0,0,0,0,4.15Z"/><path class="cls-12" d="M1779.38,633.66a2.08,2.08,0,0,0,2.08-2.07v-7.15a2.08,2.08,0,1,0-4.15,0v7.15A2.07,2.07,0,0,0,1779.38,633.66Z"/><path class="cls-13" d="M900.2,1026.69c0,1.06,0,2.14-.08,3.22-.56,12.07-4.43,24.2-12.18,33.47-6.07,7.26-13.89,12.23-22.59,15.62-.89.35-1.79.68-2.7,1H715.09c-46.54-6.21-92.77-16.22-138.68-26.81-1.21-.28-2.42-.55-3.63-.84l-3.78-.87-3.64-.84-15-3.5c-46.8-10.92-94.47-22.19-135.66-46.94-26.46-15.9-49-36.64-69.83-59.18-14-15.17-27.19-31.15-40.2-47q-3.48-4.25-7-8.42c-19-22.57-38.44-43.37-58.92-63.46-13.55-13.29-27.54-26.27-42.12-39.25,19.27-10.08,59.33-2.67,81.43-2.17,3.32.07,6.63.16,9.95.25,26.37.75,52.73,2.15,79,4.8q19.47,2,38.87,4.89a566.24,566.24,0,0,1,89.38,20.74h0a444.46,444.46,0,0,1,42.24,16.08c18.78,8.29,37,17.95,55,27.8h0l10.65,5.8,2.2,1.2q10.05,5.49,20.15,10.87c7.87,4.16,15.79,8.23,23.78,12.08l.76.37,1.73.83c5.49,2.61,11,5.13,16.59,7.51a314.5,314.5,0,0,0,34.28,12.5q2.94.87,5.9,1.67c.83.24,1.66.46,2.49.67.64.18,1.28.34,1.91.5,1.55.4,3.11.79,4.66,1.17q4.27,1,8.56,2c33.06,7.3,67.06,11.21,98.53,23.52.47.17.95.36,1.42.55l1.76.71q2.16.9,4.3,1.89h0c1,.47,2.07.95,3.1,1.45a137.23,137.23,0,0,1,39,27.91c9.29,9.64,16.72,20.65,21.2,32.65A72.73,72.73,0,0,1,900.2,1026.69Z"/><path class="cls-13" d="M1920,674.15V919.43c-22.69,24.67-49.86,45.74-78.46,63.25-90.49,55.41-193.79,79.07-299.25,97.32H984c-6.12-5.91-11.44-12.8-12.4-21.1a26.07,26.07,0,0,1,1.34-11.37,37.07,37.07,0,0,1,1.43-3.55,56.14,56.14,0,0,1,7.79-11.91c.84-1,1.7-2,2.57-3,18.17-20.14,40.63-34.44,65.14-45.7,28.84-13.25,60.52-22.28,91.37-31.59q8.28-2.49,16.45-5,19.56-6.13,38.78-13.12c22.45-8.12,44.59-17,66.51-26.48q6.25-2.7,12.49-5.47,16.89-7.46,33.62-15.32l1.74-.82q12.92-6.06,25.75-12.3l1.16-.56,2.49-1.21c33.17-16.16,66.06-33,99-49.8q18.84-9.6,37.71-19.1l.41-.21q6.62-3.32,13.23-6.61,16.77-8.35,33.63-16.5,5.94-2.87,11.89-5.69l3-1.42q16.47-7.78,33.11-15.24,19.65-8.79,39.55-17l1.56-.64.78-.32.79-.32q23.78-9.69,48-18.33l.81-.29,1.78-.63.71-.25q5.48-1.93,11-3.79,15.29-5.18,30.85-9.85l.15,0,3.92-1.16,2.71-.8a792.91,792.91,0,0,1,83.77-19.66l4.15-.72C1841.5,676.54,1880.89,673.18,1920,674.15Z"/><path class="cls-13" d="M936,886.67h-1.17a1.76,1.76,0,0,0,.24-.88h0a1.81,1.81,0,0,0-1.81-1.8h-1.52a1.84,1.84,0,0,0-.47.06v-.81a1.81,1.81,0,0,0-1.81-1.81h-5.15a1.81,1.81,0,0,0-1.81,1.81v2.55a1.76,1.76,0,0,0,.24.88h-5.9a1.81,1.81,0,0,0-1.81,1.81V891a1.81,1.81,0,0,0,1.81,1.81H936a1.81,1.81,0,0,0,1.81-1.81v-2.56A1.81,1.81,0,0,0,936,886.67Z"/><path class="cls-13" d="M1057.46,809h-.59a.93.93,0,0,0,.12-.43h0a.91.91,0,0,0-.91-.91h-.76a.91.91,0,0,0-.23,0v-.4a.9.9,0,0,0-.9-.91h-2.58a.9.9,0,0,0-.9.91v1.28a.92.92,0,0,0,.11.43h-2.94a.91.91,0,0,0-.91.91v1.28a.9.9,0,0,0,.91.9h9.58a.9.9,0,0,0,.9-.9v-1.28A.9.9,0,0,0,1057.46,809Z"/><path class="cls-13" d="M694.44,834.8h1.17a1.72,1.72,0,0,1-.24-.87h0a1.81,1.81,0,0,1,1.81-1.81h1.52a1.78,1.78,0,0,1,.47.07v-.82a1.81,1.81,0,0,1,1.81-1.81h5.15a1.81,1.81,0,0,1,1.81,1.81v2.56a1.82,1.82,0,0,1-.23.87h5.89a1.81,1.81,0,0,1,1.81,1.81v2.56A1.81,1.81,0,0,1,713.6,841H694.44a1.81,1.81,0,0,1-1.81-1.81v-2.56A1.81,1.81,0,0,1,694.44,834.8Z"/><path class="cls-13" d="M923.93,818.64h.8a1.22,1.22,0,0,1-.16-.6h0a1.25,1.25,0,0,1,1.24-1.24h1.05a1.06,1.06,0,0,1,.31.05v-.57a1.25,1.25,0,0,1,1.25-1.24H932a1.25,1.25,0,0,1,1.25,1.24V818a1.22,1.22,0,0,1-.16.6h4a1.25,1.25,0,0,1,1.25,1.24v1.76a1.24,1.24,0,0,1-1.25,1.24H923.93a1.23,1.23,0,0,1-1.24-1.24v-1.76A1.24,1.24,0,0,1,923.93,818.64Z"/><path class="cls-13" d="M1125.11,882.52h-3.44a1,1,0,0,0,.07-.38v-1a1,1,0,0,0-1-1h-2.5a1.07,1.07,0,0,0-.31.06V878a1,1,0,0,0-1-1h-6.12a1,1,0,0,0-1,1v2.66h-.26a1,1,0,0,0-1,1v.83H1107a1,1,0,0,0-1,1v1a1,1,0,0,0,1,1h18.09a1,1,0,0,0,1-1v-1A1,1,0,0,0,1125.11,882.52Zm-8.24,0a1,1,0,0,0,.36-.07.19.19,0,0,1,0,.07Z"/><path class="cls-13" d="M1432,805.68h-1.86a.52.52,0,0,0,0-.21v-.53a.56.56,0,0,0-.56-.56h-1.34a.47.47,0,0,0-.17,0v-1.18a.56.56,0,0,0-.56-.56h-3.3a.56.56,0,0,0-.56.56v1.44h-.14a.56.56,0,0,0-.56.56v.45h-.76a.56.56,0,0,0-.56.56v.52a.56.56,0,0,0,.56.56H1432a.56.56,0,0,0,.56-.56v-.52A.56.56,0,0,0,1432,805.68Zm-4.45,0a.65.65,0,0,0,.2,0,.08.08,0,0,0,0,0Z"/><rect class="cls-13" x="1027.51" y="936.69" width="15.35" height="2.44" rx="1.22"/><rect class="cls-13" x="1129.5" y="883.12" width="11.48" height="2.44" rx="1.22"/><rect class="cls-13" x="898.76" y="889.65" width="11.48" height="2.44" rx="1.22"/><rect class="cls-13" x="658.73" y="871.13" width="11.48" height="2.44" rx="1.22"/><rect class="cls-13" x="906.31" y="821.2" width="14.76" height="1.68" rx="0.84"/><rect class="cls-13" x="720.29" y="836.84" width="5.41" height="4.14" rx="2.07"/><ellipse class="cls-13" cx="843.11" cy="841.32" rx="7.06" ry="1.65"/><ellipse class="cls-13" cx="972.28" cy="817.18" rx="3.53" ry="0.82"/><ellipse class="cls-13" cx="989.47" cy="939.13" rx="3.53" ry="0.82"/><ellipse class="cls-13" cx="806.45" cy="814.22" rx="3.53" ry="0.82"/><rect class="cls-13" x="1436.63" y="806.08" width="3.13" height="1.24" rx="0.62"/><path class="cls-14" d="M1176.33,1031.84c-.85,3.54-2.95,7.43-5.36,11.28-1.51,2.42-3.14,4.82-4.66,7.1-1.33,2-2.57,3.93-3.56,5.7-4.49,8-9.49,15.83-16.7,21.64-1.08.87-2.19,1.68-3.33,2.44H765a88.41,88.41,0,0,1-9.89-12.09c-8.77-12.93-13.7-28-22-41.13a30,30,0,0,0-3.56-4.43c-.14-.16-.3-.33-.47-.49v0c-.36-.38-.73-.76-1.12-1.14-.66-.65-1.35-1.31-2.06-2-7.71-7.23-17.59-15-17.59-23.05A17.78,17.78,0,0,1,713,983.73c5.41-6.23,14.9-10.65,25.33-13.66,16.27-4.71,34.82-6,43.7-5.42a108.75,108.75,0,0,1,79.86,44.07,33.53,33.53,0,0,1,33.59-7.64l.37.12a30.41,30.41,0,0,1,4.65,2.11,33.92,33.92,0,0,1,16.27,21.34,30.35,30.35,0,0,1,.67,3.81c6.53-4.84,17.61,1.57,16.66,9.65,7.12-7.49,18.06-10.33,28.37-9.85a80.07,80.07,0,0,1,19.63,3.81c3.49,1.06,6.94,2.25,10.38,3.44l5.84,2a29.85,29.85,0,0,1,7.58-7.16c8-5.2,19.74-5.34,26.42,1.49-1-4.09,2.34-8.35,6.43-9.43s8.44.33,12.09,2.44c12.08-24,39.05-39.66,65.88-38.25a68.42,68.42,0,0,1,27.89,7.75C1155.07,999.81,1179.73,1017.67,1176.33,1031.84Z"/><path class="cls-10" d="M172.4,640.22v4.21A36.41,36.41,0,0,1,136,680.86H36.43A36.41,36.41,0,0,1,0,644.43v-4.21A36.45,36.45,0,0,1,24,606a36.06,36.06,0,0,1,9.94-2.09c.83-.06,1.66-.09,2.51-.09H136a36.4,36.4,0,0,1,36.43,36.43Z"/><rect class="cls-10" x="63.61" y="575.26" width="84.54" height="48.91" rx="23.8"/><rect class="cls-10" x="33.91" y="585.15" width="51.99" height="37.97" rx="18.98"/><path class="cls-15" d="M81.89,731.14a2.61,2.61,0,0,1-2.5-2.71V617.74a2.51,2.51,0,1,1,5,0V728.43A2.61,2.61,0,0,1,81.89,731.14Z"/><path class="cls-15" d="M81.89,634.1a2.49,2.49,0,0,1-1.18-.3l-15.37-8.25a2.5,2.5,0,0,1,2.37-4.41l15.36,8.25a2.5,2.5,0,0,1-1.18,4.71Z"/><path class="cls-15" d="M81.89,660.08a2.5,2.5,0,0,1-1.26-4.66l25.48-14.81a2.58,2.58,0,0,1,1-.33l9-.75a2.5,2.5,0,0,1,.42,5l-8.45.71-25,14.53A2.5,2.5,0,0,1,81.89,660.08Z"/><path class="cls-15" d="M81.89,676.65a2.53,2.53,0,0,1-1.24-.33l-19.11-11a2.49,2.49,0,0,1-1.26-2.17v-7.67a2.5,2.5,0,0,1,5,0v6.22L83.13,672a2.5,2.5,0,0,1-1.24,4.67Z"/><path class="cls-15" d="M62.78,665.68H54a2.5,2.5,0,0,1,0-5h8.83a2.5,2.5,0,0,1,0,5Z"/><path class="cls-15" d="M107.37,645.27a2.5,2.5,0,0,1-2.5-2.5v-8.61a2.5,2.5,0,0,1,5,0v8.61A2.5,2.5,0,0,1,107.37,645.27Z"/><path class="cls-10" d="M866.16,1080H0V716.68c10.65.94,19.65,1.59,24.73,2l2.19.19,1.27.13q17.48,2,35.11,4.35,8,1.07,16.09,2.2l5,.72c70.52,10.2,141.23,25.42,203.62,54.66,27.29,12.78,53,28.24,76.36,47.13,14.35,11.6,28.3,24,42.42,36.38q7.35,6.42,14.79,12.77c.62.54,1.24,1.07,1.87,1.59q4,3.41,8.1,6.76c19.35,15.92,39.62,30.77,62.21,42.43l2.8,1.42,1.28.64,1.06.51h0l.1,0c18.79,9.12,38.79,15.81,59.35,21.15h0l.86.22,2.1.54.93.23q3.82,1,7.67,1.87c.59.14,1.18.28,1.76.4,15.43,3.6,31.09,6.57,46.71,9.38l3,.53,2.43.43,4.71.84,1,.17,3.28.57h0l.38.07q8.9,1.58,17.72,3.16c9.79,1.78,19.76,3.7,29.79,5.84l2.49.53c9.94,2.15,19.92,4.52,29.85,7.17,26.8,7.16,53.12,16.39,76.69,29l2.49,1.35c22.85,12.55,43,28.35,58.33,48.63a191.79,191.79,0,0,1,14.83,16.3Z"/><path class="cls-10" d="M1920,768.85V1080H1087.49a339.73,339.73,0,0,1,48.67-24.26h0c11.25-4.6,22.87-8.78,34.8-12.62,32.5-10.48,67.24-18.47,102.79-25.67l1.15-.23,2.29-.46,2.32-.46c22.77-4.54,45.83-8.79,68.81-13.19h0c15.35-2.93,30.67-5.93,45.83-9.13l2.49-.52c26.24-5.57,52-11.74,76.75-19.19,16.91-5.08,33.34-10.77,49.09-17.27a368.25,368.25,0,0,0,40.31-19.42,396.91,396.91,0,0,0,40-26.13l2.19-1.62q4.11-3,8.15-6.12c7.83-6,15.51-12.05,23.2-18.14q6.42-5.09,12.87-10.15l.55-.44,1.88-1.46,1.15-.9c11.44-8.89,23.11-17.62,35.48-25.83A420.35,420.35,0,0,1,1739,818.13a504.81,504.81,0,0,1,76.54-29.07,575,575,0,0,1,87.19-18.22Q1911.36,769.72,1920,768.85Z"/><path class="cls-10" d="M175.42,744.7a.76.76,0,0,1-.76-.76V732.52a.76.76,0,0,1,1.52,0v11.42A.76.76,0,0,1,175.42,744.7Z"/><ellipse class="cls-10" cx="178.32" cy="737.25" rx="4.02" ry="1.17" transform="translate(-399.9 246.33) rotate(-36.07)"/><ellipse class="cls-10" cx="172.4" cy="734.7" rx="1.17" ry="4.02" transform="translate(-522.96 441.47) rotate(-53.93)"/><path class="cls-10" d="M315.17,798.78a1.25,1.25,0,0,0,1.25-1.25V778.84a1.25,1.25,0,0,0-2.49,0v18.69A1.24,1.24,0,0,0,315.17,798.78Z"/><ellipse class="cls-10" cx="310.42" cy="786.59" rx="1.91" ry="6.58" transform="translate(-508.14 574.36) rotate(-53.93)"/><ellipse class="cls-10" cx="320.11" cy="782.41" rx="6.58" ry="1.91" transform="translate(-399.31 338.48) rotate(-36.07)"/><ellipse class="cls-10" cx="374.87" cy="830.75" rx="6.58" ry="1.91" transform="translate(-417.27 379.99) rotate(-36.07)"/><ellipse class="cls-15" cx="262.48" cy="924.98" rx="1.91" ry="6.58" transform="translate(-286.85 135.85) rotate(-19)"/><ellipse class="cls-15" cx="348.89" cy="1049.08" rx="6.58" ry="1.91" transform="translate(-386.14 223.23) rotate(-23.27)"/><ellipse class="cls-15" cx="83.52" cy="1038.71" rx="9.85" ry="2.86" transform="matrix(0.81, -0.59, 0.59, 0.81, -595.57, 248.31)"/><ellipse class="cls-15" cx="71.6" cy="1038.16" rx="2.86" ry="9.85" transform="translate(-798.4 467.18) rotate(-52.78)"/><ellipse class="cls-10" cx="369.43" cy="828.4" rx="1.91" ry="6.58" transform="translate(-113.7 60.74) rotate(-8.15)"/><ellipse class="cls-15" cx="341.9" cy="969.85" rx="6.58" ry="1.91" transform="translate(-670.37 788.69) rotate(-60.43)"/><ellipse class="cls-15" cx="335.98" cy="969.96" rx="1.91" ry="6.58" transform="translate(-468.68 332.6) rotate(-32.51)"/><ellipse class="cls-12" cx="488.26" cy="1044.54" rx="6.58" ry="1.91" transform="translate(-661.19 953.83) rotate(-60.43)"/><ellipse class="cls-12" cx="482.34" cy="1044.65" rx="1.91" ry="6.58" transform="translate(-485.89 422.98) rotate(-32.51)"/><ellipse class="cls-15" cx="444.73" cy="932.01" rx="3.29" ry="0.96" transform="translate(-585.36 858.96) rotate(-60.43)"/><ellipse class="cls-15" cx="441.77" cy="932.06" rx="0.96" ry="3.29" transform="translate(-431.73 383.53) rotate(-32.51)"/><ellipse class="cls-10" cx="222.53" cy="753.22" rx="1.91" ry="6.58" transform="translate(-104.53 39.15) rotate(-8.15)"/><ellipse class="cls-10" cx="330.78" cy="801.02" rx="1.91" ry="6.58" transform="translate(-110.21 54.98) rotate(-8.15)"/><ellipse class="cls-10" cx="332.89" cy="804.47" rx="6.58" ry="1.91" transform="translate(-329.21 239.13) rotate(-27.03)"/><ellipse class="cls-10" cx="354.49" cy="819.99" rx="6.58" ry="1.91" transform="translate(-333.91 250.64) rotate(-27.03)"/><path class="cls-10" d="M132.74,740.28a1.25,1.25,0,0,1-1.25-1.25V720.34a1.25,1.25,0,0,1,2.49,0V739A1.24,1.24,0,0,1,132.74,740.28Z"/><ellipse class="cls-10" cx="137.49" cy="728.09" rx="6.58" ry="1.91" transform="matrix(0.81, -0.59, 0.59, 0.81, -402.33, 220.54)"/><ellipse class="cls-10" cx="127.8" cy="723.91" rx="1.91" ry="6.58" transform="translate(-532.58 400.98) rotate(-53.93)"/><ellipse class="cls-10" cx="129.65" cy="714.5" rx="2.77" ry="5.83" transform="translate(-524.2 398.61) rotate(-53.93)"/><ellipse class="cls-10" cx="135.82" cy="714.5" rx="5.83" ry="2.77" transform="translate(-394.65 216.95) rotate(-36.07)"/><ellipse class="cls-15" cx="24.44" cy="624.16" rx="2.77" ry="5.83" transform="translate(-494.45 276.42) rotate(-53.93)"/><ellipse class="cls-15" cx="148.64" cy="665.68" rx="5.83" ry="2.77" transform="translate(-363.45 215.14) rotate(-36.07)"/><ellipse class="cls-11" cx="201.99" cy="714.15" rx="5.83" ry="1.38" transform="matrix(0.81, -0.59, 0.59, 0.81, -381.76, 255.85)"/><ellipse class="cls-11" cx="251.15" cy="656.75" rx="1.38" ry="5.83" transform="translate(-385.6 358.51) rotate(-43.98)"/><ellipse class="cls-11" cx="398.51" cy="766.63" rx="1.38" ry="5.83" transform="translate(-420.58 491.64) rotate(-43.98)"/><ellipse class="cls-15" cx="148.64" cy="618.92" rx="3.98" ry="1.89" transform="translate(-62.61 18.48) rotate(-5.88)"/><ellipse class="cls-15" cx="77.71" cy="591.47" rx="1.89" ry="3.98" transform="translate(-501.73 449.62) rotate(-68.76)"/><path class="cls-15" d="M169.81,965.51a.92.92,0,0,1-.92-.91V950.85a.92.92,0,0,1,1.84,0V964.6A.92.92,0,0,1,169.81,965.51Z"/><ellipse class="cls-15" cx="173.3" cy="956.55" rx="4.84" ry="1.41" transform="translate(-529.98 285.42) rotate(-36.07)"/><ellipse class="cls-15" cx="166.18" cy="953.48" rx="1.41" ry="4.84" transform="translate(-702.35 526.4) rotate(-53.93)"/><ellipse class="cls-15" cx="167.54" cy="946.55" rx="2.04" ry="4.29" transform="translate(-696.19 524.65) rotate(-53.93)"/><ellipse class="cls-15" cx="172.08" cy="946.55" rx="4.29" ry="2.04" transform="translate(-524.33 282.79) rotate(-36.07)"/><ellipse class="cls-10" cx="312.53" cy="772.9" rx="1.91" ry="4.03" transform="translate(-496.2 570.44) rotate(-53.93)"/><ellipse class="cls-10" cx="316.8" cy="772.9" rx="4.03" ry="1.91" transform="translate(-394.34 334.7) rotate(-36.07)"/><path class="cls-11" d="M266,690.58a.32.32,0,0,0,.33-.32v-5a.33.33,0,1,0-.66,0v5A.32.32,0,0,0,266,690.58Z"/><ellipse class="cls-11" cx="264.73" cy="687.36" rx="0.51" ry="1.74" transform="translate(-446.72 496.63) rotate(-53.93)"/><ellipse class="cls-11" cx="267.29" cy="686.26" rx="1.74" ry="0.51" transform="translate(-352.82 288.95) rotate(-36.07)"/><ellipse class="cls-11" cx="265.29" cy="683.74" rx="0.51" ry="1.07" transform="translate(-443.56 495.59) rotate(-53.93)"/><ellipse class="cls-11" cx="266.42" cy="683.74" rx="1.07" ry="0.51" transform="translate(-351.5 287.95) rotate(-36.07)"/><path class="cls-11" d="M176.15,716.27a.32.32,0,0,0,.33-.33V711a.33.33,0,0,0-.33-.33.33.33,0,0,0-.33.33v4.94A.33.33,0,0,0,176.15,716.27Z"/><ellipse class="cls-11" cx="174.9" cy="713.05" rx="0.51" ry="1.74" transform="translate(-504.43 434.58) rotate(-53.93)"/><ellipse class="cls-11" cx="177.46" cy="711.94" rx="1.74" ry="0.51" transform="translate(-385.17 240.98) rotate(-36.07)"/><ellipse class="cls-11" cx="175.46" cy="709.43" rx="0.51" ry="1.07" transform="translate(-501.27 433.54) rotate(-53.93)"/><ellipse class="cls-11" cx="176.58" cy="709.43" rx="1.07" ry="0.51" transform="translate(-383.85 239.98) rotate(-36.07)"/><path class="cls-11" d="M364.73,776.69a.32.32,0,0,0,.33-.32v-5a.33.33,0,1,0-.66,0v5A.32.32,0,0,0,364.73,776.69Z"/><ellipse class="cls-11" cx="363.48" cy="773.47" rx="0.51" ry="1.74" transform="translate(-475.72 611.85) rotate(-53.93)"/><ellipse class="cls-11" cx="366.04" cy="772.37" rx="1.74" ry="0.51" transform="translate(-384.59 363.59) rotate(-36.07)"/><ellipse class="cls-11" cx="364.03" cy="769.85" rx="0.51" ry="1.07" transform="translate(-472.56 610.81) rotate(-53.93)"/><ellipse class="cls-11" cx="365.16" cy="769.85" rx="1.07" ry="0.51" transform="translate(-383.27 362.59) rotate(-36.07)"/><path class="cls-11" d="M417.4,739.75a.33.33,0,0,0,.33-.33v-4.94a.33.33,0,0,0-.66,0v4.94A.33.33,0,0,0,417.4,739.75Z"/><ellipse class="cls-11" cx="416.15" cy="736.53" rx="0.51" ry="1.74" transform="translate(-424.2 639.23) rotate(-53.93)"/><ellipse class="cls-11" cx="418.71" cy="735.42" rx="1.74" ry="0.51" transform="translate(-352.74 387.52) rotate(-36.07)"/><ellipse class="cls-11" cx="416.7" cy="732.9" rx="0.51" ry="1.07" transform="translate(-421.04 638.19) rotate(-53.93)"/><ellipse class="cls-11" cx="417.83" cy="732.9" rx="1.07" ry="0.51" transform="translate(-351.42 386.52) rotate(-36.07)"/><path class="cls-11" d="M198.45,620.16a.52.52,0,0,0,.52-.52v-7.79a.52.52,0,0,0-1,0v7.79A.52.52,0,0,0,198.45,620.16Z"/><ellipse class="cls-11" cx="196.47" cy="615.08" rx="0.8" ry="2.74" transform="translate(-416.37 411.73) rotate(-53.93)"/><ellipse class="cls-11" cx="200.51" cy="613.34" rx="2.74" ry="0.8" transform="translate(-322.69 235.64) rotate(-36.07)"/><ellipse class="cls-11" cx="197.35" cy="609.37" rx="0.8" ry="1.68" transform="translate(-411.39 410.1) rotate(-53.93)"/><ellipse class="cls-11" cx="199.13" cy="609.37" rx="1.68" ry="0.8" transform="translate(-320.62 234.07) rotate(-36.07)"/><path class="cls-10" d="M681.91,982a1.25,1.25,0,0,0,1.25-1.25V962.11a1.25,1.25,0,1,0-2.49,0v18.68A1.24,1.24,0,0,0,681.91,982Z"/><ellipse class="cls-10" cx="677.17" cy="969.85" rx="1.91" ry="6.58" transform="translate(-505.46 946.15) rotate(-53.93)"/><ellipse class="cls-10" cx="686.85" cy="965.68" rx="6.58" ry="1.91" transform="translate(-436.9 589.54) rotate(-36.07)"/><ellipse class="cls-11" cx="725.7" cy="949.91" rx="1.91" ry="6.58" transform="translate(-452.32 1152.99) rotate(-62.4)"/><ellipse class="cls-11" cx="530.96" cy="907.71" rx="1.91" ry="6.58" transform="translate(-520.6 916.74) rotate(-60.17)"/><ellipse class="cls-11" cx="411.99" cy="828.4" rx="1.91" ry="6.58" transform="translate(-496.03 1005.87) rotate(-74.62)"/><ellipse class="cls-11" cx="631.74" cy="942.51" rx="1" ry="3.45" transform="matrix(0.52, -0.85, 0.85, 0.52, -501.84, 991.77)"/><ellipse class="cls-10" cx="766.2" cy="953.33" rx="3.45" ry="1" transform="translate(-352.13 458.12) rotate(-27.33)"/><ellipse class="cls-14" cx="675.83" cy="939.96" rx="1" ry="3.45" transform="translate(-476.63 1049.92) rotate(-59.73)"/><ellipse class="cls-10" cx="540.97" cy="929.11" rx="1" ry="3.45" transform="translate(-364.23 349.01) rotate(-27.14)"/><ellipse class="cls-10" cx="633.72" cy="963.35" rx="6.58" ry="1.91" transform="translate(-509.84 815.37) rotate(-49.29)"/><ellipse class="cls-10" cx="630.09" cy="965.11" rx="1.91" ry="6.58" transform="translate(-401.85 451.73) rotate(-30.41)"/><ellipse class="cls-12" cx="803.37" cy="899.14" rx="6.58" ry="1.91" transform="translate(-402.18 921.64) rotate(-49.29)"/><ellipse class="cls-12" cx="799.74" cy="900.91" rx="1.91" ry="6.58" transform="translate(-346.01 528.77) rotate(-30.41)"/><ellipse class="cls-12" cx="860.22" cy="908.7" rx="6.58" ry="1.91" transform="translate(-363.67 648.28) rotate(-34.56)"/><ellipse class="cls-12" cx="856.26" cy="909.49" rx="1.91" ry="6.58" transform="translate(-213.93 265.25) rotate(-15.68)"/><ellipse class="cls-10" cx="495.63" cy="924.98" rx="1.91" ry="6.58" transform="translate(-400.03 378.15) rotate(-30.41)"/><ellipse class="cls-10" cx="501.92" cy="927.79" rx="4.76" ry="1.38" transform="translate(-419.66 414.55) rotate(-32.47)"/><ellipse class="cls-10" cx="562.65" cy="950.95" rx="4.76" ry="1.38" transform="translate(-422.6 450.78) rotate(-32.47)"/><ellipse class="cls-10" cx="558.57" cy="949.68" rx="1.38" ry="4.76" transform="translate(-422.55 448.39) rotate(-32.47)"/><ellipse class="cls-10" cx="679.28" cy="956.16" rx="1.91" ry="4.03" transform="translate(-493.53 942.23) rotate(-53.93)"/><ellipse class="cls-10" cx="683.54" cy="956.16" rx="4.03" ry="1.91" transform="translate(-431.93 585.77) rotate(-36.07)"/><path class="cls-13" d="M650.56,889.36a1.24,1.24,0,0,0,1.25-1.24V869.43a1.25,1.25,0,1,0-2.49,0v18.69A1.23,1.23,0,0,0,650.56,889.36Z"/><ellipse class="cls-13" cx="645.82" cy="877.17" rx="1.91" ry="6.58" transform="translate(-443.44 882.71) rotate(-53.93)"/><ellipse class="cls-13" cx="655.5" cy="873" rx="6.58" ry="1.91" transform="translate(-388.35 553.32) rotate(-36.07)"/><path class="cls-13" d="M464.8,807.3a1.23,1.23,0,0,0,1.24-1.24V787.37a1.25,1.25,0,1,0-2.49,0v18.69A1.24,1.24,0,0,0,464.8,807.3Z"/><ellipse class="cls-13" cx="460.05" cy="795.12" rx="1.91" ry="6.58" transform="translate(-453.5 698.81) rotate(-53.93)"/><ellipse class="cls-13" cx="469.73" cy="790.94" rx="6.58" ry="1.91" transform="translate(-375.64 428.21) rotate(-36.07)"/><path class="cls-15" d="M501.06,1012.05a1.08,1.08,0,0,0,1.09-1.08V994.66a1.09,1.09,0,1,0-2.17,0V1011A1.08,1.08,0,0,0,501.06,1012.05Z"/><ellipse class="cls-15" cx="496.92" cy="1001.41" rx="1.67" ry="5.75" transform="translate(-605.09 813.44) rotate(-53.93)"/><ellipse class="cls-15" cx="505.37" cy="997.77" rx="5.75" ry="1.67" transform="translate(-490.59 488.85) rotate(-36.07)"/><ellipse class="cls-15" cx="498.76" cy="989.47" rx="1.67" ry="3.52" transform="translate(-594.67 810.02) rotate(-53.93)"/><ellipse class="cls-15" cx="502.48" cy="989.47" rx="3.52" ry="1.67" transform="translate(-486.25 485.55) rotate(-36.07)"/><path class="cls-15" d="M728.74,1027.91a.8.8,0,0,0,.8-.8v-12a.8.8,0,0,0-1.6,0v12A.8.8,0,0,0,728.74,1027.91Z"/><ellipse class="cls-15" cx="725.69" cy="1020.08" rx="1.23" ry="4.23" transform="translate(-526.11 1006.03) rotate(-53.93)"/><ellipse class="cls-15" cx="731.91" cy="1017.4" rx="4.23" ry="1.23" transform="translate(-458.72 625.99) rotate(-36.07)"/><ellipse class="cls-15" cx="727.05" cy="1011.3" rx="1.23" ry="2.59" transform="translate(-518.45 1003.51) rotate(-53.93)"/><ellipse class="cls-15" cx="729.78" cy="1011.3" rx="2.59" ry="1.23" transform="translate(-455.53 623.57) rotate(-36.07)"/><path class="cls-10" d="M791,1020.07a1.24,1.24,0,0,0,1.24-1.25v-18.69a1.25,1.25,0,0,0-2.49,0v18.69A1.25,1.25,0,0,0,791,1020.07Z"/><ellipse class="cls-10" cx="786.2" cy="1007.88" rx="1.91" ry="6.58" transform="translate(-491.36 1049.92) rotate(-53.93)"/><ellipse class="cls-10" cx="795.88" cy="1003.7" rx="6.58" ry="1.91" transform="translate(-438.39 661.03) rotate(-36.07)"/><ellipse class="cls-10" cx="788.31" cy="994.19" rx="1.91" ry="4.03" transform="translate(-479.43 1046) rotate(-53.93)"/><ellipse class="cls-10" cx="792.57" cy="994.19" rx="4.03" ry="1.91" transform="translate(-433.42 657.26) rotate(-36.07)"/><path class="cls-12" d="M842.7,910.92a1.24,1.24,0,0,0,1.25-1.24V891a1.25,1.25,0,1,0-2.49,0v18.69A1.23,1.23,0,0,0,842.7,910.92Z"/><ellipse class="cls-12" cx="837.95" cy="898.73" rx="1.91" ry="6.58" transform="translate(-381.86 1046.87) rotate(-53.93)"/><ellipse class="cls-12" cx="847.64" cy="894.56" rx="6.58" ry="1.91" transform="translate(-364.2 670.58) rotate(-36.07)"/><ellipse class="cls-12" cx="840.06" cy="885.04" rx="1.91" ry="4.03" transform="translate(-369.93 1042.95) rotate(-53.93)"/><ellipse class="cls-12" cx="844.33" cy="885.04" rx="4.03" ry="1.91" transform="translate(-359.24 666.81) rotate(-36.07)"/><circle class="cls-10" cx="175.42" cy="728.33" r="2.96"/><circle class="cls-10" cx="33.47" cy="713.05" r="2.16"/><circle class="cls-10" cx="19.27" cy="710.11" r="2.16"/><circle class="cls-10" cx="25.83" cy="708.86" r="2.16"/><path class="cls-10" d="M25.83,724.44a1.1,1.1,0,0,1-1.1-1.1V710.88a1.1,1.1,0,0,1,2.19,0v12.46A1.1,1.1,0,0,1,25.83,724.44Z"/><path class="cls-10" d="M25.83,718.66a1.11,1.11,0,0,1-1-.56,1.1,1.1,0,0,1,.41-1.49l7-4a1.1,1.1,0,1,1,1.09,1.91l-7,4A1.08,1.08,0,0,1,25.83,718.66Z"/><path class="cls-10" d="M25,715.93a1.08,1.08,0,0,1-.7-.26l-4.79-4A1.1,1.1,0,1,1,20.9,710l4.78,4a1.1,1.1,0,0,1-.7,1.94Z"/><circle class="cls-10" cx="431.74" cy="872.21" r="2.16"/><circle class="cls-10" cx="418.6" cy="866.08" r="2.16"/><circle class="cls-10" cx="425.27" cy="866.37" r="2.16"/><path class="cls-10" d="M421.68,881.53a1.09,1.09,0,0,1-.81-1.32l2.87-12.12a1.1,1.1,0,0,1,2.13.51L423,880.71A1.1,1.1,0,0,1,421.68,881.53Z"/><path class="cls-10" d="M423,875.91a1.11,1.11,0,0,1-.8-.76,1.1,1.1,0,0,1,.75-1.36l7.72-2.27a1.1,1.1,0,0,1,1.36.74,1.11,1.11,0,0,1-.74,1.37l-7.72,2.26A1.11,1.11,0,0,1,423,875.91Z"/><path class="cls-10" d="M422.82,873.05a1.08,1.08,0,0,1-.63-.4l-3.73-5a1.09,1.09,0,1,1,1.75-1.31l3.74,5a1.11,1.11,0,0,1-.22,1.54A1.07,1.07,0,0,1,422.82,873.05Z"/><circle class="cls-15" cx="43.55" cy="753.22" r="4.72"/><circle class="cls-15" cx="278.3" cy="834.93" r="4.72"/><circle class="cls-15" cx="430.63" cy="1046.27" r="3.27"/><circle class="cls-15" cx="72.47" cy="881.56" r="2.64"/><path class="cls-15" d="M800.12,1058.73A178.11,178.11,0,0,0,786,1047.36a5,5,0,0,1-1.18-6.88h0a5,5,0,0,1,7-1.21,188.05,188.05,0,0,1,14.92,12Z"/><path class="cls-15" d="M574.34,980.86c-7.24-1.38-13.82-2.71-20-4a5,5,0,0,1-3.82-6h0a5,5,0,0,1,5.93-3.8c6.07,1.3,12.57,2.61,19.72,4Z"/><path class="cls-15" d="M828.3,1080h-8.46a152.46,152.46,0,0,0-19.72-21.27,5,5,0,0,1,6.68-7.45,164,164,0,0,1,21.27,23A5,5,0,0,1,828.3,1080Z"/><path class="cls-15" d="M638.26,992.39a5.17,5.17,0,0,1-1-.09c-4.43-.86-8.93-1.7-13.76-2.58q-8.65-1.56-17.38-3.09c-10.42-1.84-21.21-3.74-31.83-5.77a5,5,0,0,1,1.87-9.82c10.56,2,21.31,3.91,31.7,5.75q8.75,1.53,17.42,3.09c4.87.89,9.41,1.74,13.88,2.6a5,5,0,0,1-1,9.91Z"/><path class="cls-15" d="M532.6,971.57a4.93,4.93,0,0,1-1.25-.16c-23.14-6-42.83-12.95-60.2-21.3a5,5,0,1,1,4.33-9c16.78,8.06,35.87,14.81,58.37,20.63a5,5,0,0,1-1.25,9.84Z"/><path class="cls-15" d="M427.43,922.6a4.94,4.94,0,0,1-2.95-1c-19.11-14-37.09-29.74-54.47-45-11.48-10.06-23.34-20.46-35.22-30.06-3.21-2.59-6.52-5.16-9.85-7.65a5,5,0,0,1,6-8c3.43,2.57,6.85,5.22,10.15,7.89,12,9.73,24,20.2,35.53,30.32,17.22,15.1,35,30.72,53.79,44.44a5,5,0,0,1-3,9Z"/><path class="cls-15" d="M327.92,839.92a4.94,4.94,0,0,1-3-1c-7.21-5.39-14.82-10.61-22.62-15.52a5,5,0,0,1,5.33-8.47c8,5.06,15.86,10.44,23.27,16a5,5,0,0,1-3,9Z"/><path class="cls-15" d="M190.75,773.82a5.17,5.17,0,0,1-1.44-.21c-28.54-8.58-59.79-15.77-95.53-22a5,5,0,1,1,1.71-9.85c36.15,6.27,67.78,13.55,96.7,22.25a5,5,0,0,1-1.44,9.79Z"/><path class="cls-15" d="M62.93,746.62a4.71,4.71,0,0,1-.74-.06C49,744.6,35,742.72,19.55,740.8a5,5,0,1,1,1.23-9.92c15.54,1.93,29.56,3.82,42.88,5.79a5,5,0,0,1-.73,10Z"/><circle class="cls-15" cx="179.17" cy="965.51" r="1.71"/><circle class="cls-15" cx="149.93" cy="854.44" r="2.81"/><circle class="cls-12" cx="20.17" cy="772.9" r="4.05"/><circle class="cls-12" cx="118.61" cy="1055.01" r="4.05"/><circle class="cls-12" cx="138.93" cy="1057.6" r="2.59"/><ellipse class="cls-15" cx="1616.38" cy="1050.35" rx="9.85" ry="2.86" transform="translate(-308.55 1153.08) rotate(-36.07)"/><ellipse class="cls-15" cx="1604.46" cy="1049.8" rx="2.86" ry="9.85" transform="translate(-202.04 1692.4) rotate(-52.78)"/><ellipse class="cls-13" cx="1463.09" cy="996.97" rx="5.57" ry="1.62" transform="translate(-118.46 1792.76) rotate(-60.98)"/><ellipse class="cls-13" cx="1456.85" cy="999.52" rx="1.62" ry="5.57" transform="translate(169.66 2209.73) rotate(-77.69)"/><path class="cls-15" d="M1648.72,988.72a.92.92,0,0,1-.92-.92V974.06a.92.92,0,1,1,1.83,0V987.8A.92.92,0,0,1,1648.72,988.72Z"/><ellipse class="cls-15" cx="1652.21" cy="979.75" rx="4.84" ry="1.41" transform="translate(-260.12 1160.64) rotate(-36.07)"/><ellipse class="cls-15" cx="1645.09" cy="976.68" rx="1.41" ry="4.84" transform="translate(-112.97 1731.32) rotate(-53.93)"/><ellipse class="cls-15" cx="1646.45" cy="969.76" rx="2.04" ry="4.29" transform="translate(-106.81 1729.57) rotate(-53.93)"/><ellipse class="cls-15" cx="1650.98" cy="969.76" rx="4.29" ry="2.04" transform="translate(-254.47 1158) rotate(-36.07)"/><circle class="cls-15" cx="1760.82" cy="871.84" r="2.64"/><circle class="cls-10" cx="1709.1" cy="746.78" r="2.64"/><circle class="cls-15" cx="1658.07" cy="988.72" r="1.71"/><circle class="cls-12" cx="1838.98" cy="905.43" r="4.05"/><circle class="cls-12" cx="1833.28" cy="763.87" r="4.05"/><circle class="cls-12" cx="1778.4" cy="655.76" r="3.06"/><circle class="cls-12" cx="1339.03" cy="1037.34" r="2.03"/><circle class="cls-12" cx="1799.76" cy="922.5" r="2.59"/><circle class="cls-12" cx="649.91" cy="1005.06" r="4.05"/><circle class="cls-11" cx="869.84" cy="925.09" r="3.33"/><circle class="cls-12" cx="619.41" cy="1012.05" r="2.03"/><path class="cls-10" d="M617.85,952.75l-.71-.12a8.2,8.2,0,0,0-5.94-9.1l.17-1a8.18,8.18,0,0,0-6.72-9.42l-10.89-1.82a8.19,8.19,0,0,0-9.43,6.72l-.73,4.34a8.19,8.19,0,0,0,.64,4.77l-2.86-.48a8.17,8.17,0,0,0-9.42,6.72l-.24,1.4a8.19,8.19,0,0,0,6.73,9.42l36.47,6.11a8.2,8.2,0,0,0,9.42-6.72l.23-1.4A8.17,8.17,0,0,0,617.85,952.75Z"/><path class="cls-15" d="M599.88,937.91l-.25,0-7.55-1.27a1.49,1.49,0,0,1-1.23-1.72,1.5,1.5,0,0,1,1.73-1.23l7.54,1.26a1.5,1.5,0,0,1-.24,3Z"/><path class="cls-15" d="M611.87,953.19a1.5,1.5,0,0,1-1.39-.94,6.72,6.72,0,0,0-4.44-4,1.5,1.5,0,0,1-1.09-1.7l.17-1a6.6,6.6,0,0,0-1.28-5.15,1.5,1.5,0,0,1,2.39-1.82,9.75,9.75,0,0,1,1.88,7.23,9.73,9.73,0,0,1,5.16,5.29,1.51,1.51,0,0,1-.84,2A1.36,1.36,0,0,1,611.87,953.19Z"/><path class="cls-15" d="M616.09,973.79a1.5,1.5,0,0,1-.85-2.74,6.66,6.66,0,0,0,2.85-4.43l.23-1.4a6.67,6.67,0,0,0-3.51-7,1.5,1.5,0,1,1,1.38-2.66,9.66,9.66,0,0,1,5.09,10.2l-.23,1.39a9.59,9.59,0,0,1-4.13,6.42A1.43,1.43,0,0,1,616.09,973.79Z"/><circle class="cls-15" cx="19.12" cy="658.71" r="3.22"/><circle class="cls-15" cx="109.87" cy="618.92" r="3.22"/><path class="cls-10" d="M1603.76,911.88a1.25,1.25,0,0,0,1.25-1.24V892a1.25,1.25,0,1,0-2.49,0v18.69A1.24,1.24,0,0,0,1603.76,911.88Z"/><ellipse class="cls-10" cx="1599.02" cy="899.69" rx="1.91" ry="6.58" transform="translate(-69.68 1662.42) rotate(-53.93)"/><ellipse class="cls-10" cx="1786.22" cy="718.07" rx="6.58" ry="1.91" transform="translate(-35.27 1341.28) rotate(-40.79)"/><ellipse class="cls-10" cx="1826.37" cy="599.86" rx="5.86" ry="1.7" transform="translate(51.7 1338.8) rotate(-40.79)"/><ellipse class="cls-11" cx="1709.1" cy="779.73" rx="1.91" ry="6.58" transform="translate(743.78 2391.3) rotate(-83.6)"/><ellipse class="cls-10" cx="1739.96" cy="722.61" rx="1.91" ry="6.58" transform="translate(991.75 2451.72) rotate(-89.15)"/><ellipse class="cls-10" cx="1747.14" cy="639.64" rx="1.7" ry="5.86" transform="translate(1081.78 2377.15) rotate(-89.15)"/><ellipse class="cls-11" cx="1762.55" cy="605.31" rx="6.58" ry="1.91" transform="translate(108.28 1463.44) rotate(-46.37)"/><ellipse class="cls-10" cx="1666.09" cy="836.16" rx="1.91" ry="6.58" transform="translate(805.75 2489.89) rotate(-89.17)"/><ellipse class="cls-11" cx="1474.97" cy="868.09" rx="1.91" ry="6.58" transform="translate(268.82 2082.31) rotate(-75.67)"/><ellipse class="cls-10" cx="1535.9" cy="888.83" rx="6.58" ry="1.91" transform="translate(-114.47 1540.99) rotate(-51.62)"/><ellipse class="cls-10" cx="1608.7" cy="895.52" rx="6.58" ry="1.91" transform="translate(-218.86 1118.87) rotate(-36.07)"/><path class="cls-10" d="M1395.43,997.12a1.24,1.24,0,0,0,1.24-1.24V977.19a1.25,1.25,0,1,0-2.49,0v18.69A1.25,1.25,0,0,0,1395.43,997.12Z"/><ellipse class="cls-10" cx="1390.68" cy="984.93" rx="1.91" ry="6.58" transform="translate(-224.25 1529.08) rotate(-53.93)"/><ellipse class="cls-10" cx="1400.36" cy="980.76" rx="6.58" ry="1.91" transform="translate(-308.99 1012.55) rotate(-36.07)"/><ellipse class="cls-10" cx="1278.75" cy="1014.16" rx="6.58" ry="1.91" transform="translate(-290.21 1463.68) rotate(-54.41)"/><ellipse class="cls-10" cx="1271.99" cy="1014.16" rx="1.91" ry="6.58" transform="translate(-293.04 1458.19) rotate(-54.41)"/><ellipse class="cls-10" cx="1645.77" cy="873.03" rx="1.91" ry="6.58" transform="translate(421.16 2276.98) rotate(-76.85)"/><ellipse class="cls-15" cx="1773.91" cy="1006.29" rx="1.91" ry="6.58" transform="translate(390.39 2504.7) rotate(-76.85)"/><ellipse class="cls-15" cx="1875.58" cy="942.27" rx="6.58" ry="1.91" transform="translate(695.06 2677.8) rotate(-82.45)"/><ellipse class="cls-15" cx="1838.98" cy="857.49" rx="6.58" ry="1.91" transform="translate(-176.84 1089.03) rotate(-31.55)"/><ellipse class="cls-10" cx="1650.8" cy="870.6" rx="1.91" ry="6.58" transform="translate(-78.62 169.04) rotate(-5.73)"/><ellipse class="cls-11" cx="1626.51" cy="763.59" rx="1.36" ry="4.68" transform="translate(-42.18 1429.98) rotate(-46.92)"/><ellipse class="cls-11" cx="1630.48" cy="763.87" rx="4.68" ry="1.36" transform="translate(265.27 1937.83) rotate(-65.8)"/><ellipse class="cls-10" cx="1601.13" cy="886" rx="1.91" ry="4.03" transform="translate(-57.74 1658.5) rotate(-53.93)"/><ellipse class="cls-10" cx="1605.39" cy="886" rx="4.03" ry="1.91" transform="translate(-213.89 1115.1) rotate(-36.07)"/><path class="cls-13" d="M1338.93,875.66a1.25,1.25,0,0,0,1.25-1.25V855.72a1.25,1.25,0,0,0-2.49,0v18.69A1.25,1.25,0,0,0,1338.93,875.66Z"/><ellipse class="cls-13" cx="1334.19" cy="863.47" rx="1.91" ry="6.58" transform="translate(-149.3 1433.47) rotate(-53.93)"/><ellipse class="cls-13" cx="1343.87" cy="859.29" rx="6.58" ry="1.91" transform="translate(-248.3 956) rotate(-36.07)"/><ellipse class="cls-13" cx="1336.3" cy="849.78" rx="1.91" ry="4.03" transform="translate(-137.36 1429.54) rotate(-53.93)"/><ellipse class="cls-13" cx="1340.56" cy="849.78" rx="4.03" ry="1.91" transform="translate(-243.34 952.22) rotate(-36.07)"/><path class="cls-12" d="M1185.09,903.19a1.25,1.25,0,0,0,1.24-1.25V883.26a1.25,1.25,0,1,0-2.49,0v18.68A1.25,1.25,0,0,0,1185.09,903.19Z"/><ellipse class="cls-12" cx="1180.34" cy="891" rx="1.91" ry="6.58" transform="translate(-234.82 1320.44) rotate(-53.93)"/><ellipse class="cls-12" cx="1190.02" cy="886.83" rx="6.58" ry="1.91" transform="translate(-294.01 870.69) rotate(-36.07)"/><ellipse class="cls-12" cx="1182.45" cy="877.31" rx="1.91" ry="4.03" transform="translate(-222.88 1316.51) rotate(-53.93)"/><ellipse class="cls-12" cx="1186.71" cy="877.31" rx="4.03" ry="1.91" transform="translate(-289.04 866.92) rotate(-36.07)"/><path class="cls-13" d="M1664.84,728.79a1.24,1.24,0,0,0,1.25-1.24V708.86a1.25,1.25,0,1,0-2.49,0v18.69A1.23,1.23,0,0,0,1664.84,728.79Z"/><ellipse class="cls-13" cx="1660.09" cy="716.6" rx="1.91" ry="6.58" transform="translate(103.43 1636.5) rotate(-53.93)"/><ellipse class="cls-13" cx="1669.78" cy="712.43" rx="6.58" ry="1.91" transform="translate(-99.35 1119.73) rotate(-36.07)"/><ellipse class="cls-13" cx="1706.61" cy="702.91" rx="1.91" ry="6.58" transform="translate(329.23 1931.49) rotate(-64.12)"/><ellipse class="cls-13" cx="1712.59" cy="702.91" rx="6.58" ry="1.91" transform="translate(-17.84 1360.68) rotate(-43.13)"/><ellipse class="cls-13" cx="1614.94" cy="734.7" rx="4.92" ry="1.43" transform="translate(354.13 1982.97) rotate(-69.18)"/><ellipse class="cls-13" cx="1610.24" cy="738.31" rx="1.43" ry="4.92" transform="translate(579.64 2179.1) rotate(-79.06)"/><ellipse class="cls-13" cx="1662.2" cy="702.91" rx="1.91" ry="4.03" transform="translate(115.36 1632.58) rotate(-53.93)"/><ellipse class="cls-13" cx="1666.47" cy="702.91" rx="4.03" ry="1.91" transform="translate(-94.38 1115.96) rotate(-36.07)"/><path class="cls-10" d="M1508.4,828.91a.91.91,0,0,0,.91-.91V814.25a.92.92,0,0,0-1.83,0V828A.92.92,0,0,0,1508.4,828.91Z"/><ellipse class="cls-10" cx="1504.91" cy="819.95" rx="1.41" ry="4.84" transform="translate(-43.92 1553.56) rotate(-53.93)"/><ellipse class="cls-10" cx="1512.03" cy="816.88" rx="4.84" ry="1.41" transform="translate(-191.09 1046.88) rotate(-36.07)"/><circle class="cls-16" cx="1508.03" cy="810.77" r="4.38"/><circle class="cls-17" cx="1508.03" cy="810.77" r="2.08"/><path class="cls-10" d="M1396.58,938a1.23,1.23,0,0,0,1.24-1.24V918a1.25,1.25,0,1,0-2.49,0v18.69A1.24,1.24,0,0,0,1396.58,938Z"/><ellipse class="cls-10" cx="1391.83" cy="925.76" rx="1.91" ry="6.58" transform="translate(-175.95 1505.68) rotate(-53.93)"/><ellipse class="cls-10" cx="1401.51" cy="921.59" rx="6.58" ry="1.91" transform="translate(-273.93 1001.88) rotate(-36.07)"/><circle class="cls-16" cx="1396.58" cy="914.63" r="4.38"/><circle class="cls-17" cx="1396.58" cy="914.63" r="2.08"/><path class="cls-10" d="M1245.61,902.31a.8.8,0,0,0,.8-.8v-12a.8.8,0,1,0-1.6,0v12A.8.8,0,0,0,1245.61,902.31Z"/><ellipse class="cls-10" cx="1242.56" cy="894.49" rx="1.23" ry="4.22" transform="translate(-212.05 1372.17) rotate(-53.93)"/><ellipse class="cls-10" cx="1248.77" cy="891.81" rx="4.22" ry="1.23" transform="translate(-285.68 906.24) rotate(-36.07)"/><circle class="cls-16" cx="1245.61" cy="887.35" r="2.81"/><circle class="cls-17" cx="1245.61" cy="887.35" r="1.33"/><path class="cls-12" d="M1084.57,944.16a1.25,1.25,0,0,0,1.25-1.24V924.23a1.25,1.25,0,1,0-2.49,0v18.69A1.25,1.25,0,0,0,1084.57,944.16Z"/><ellipse class="cls-12" cx="1079.83" cy="931.97" rx="1.91" ry="6.58" transform="translate(-309.26 1256.04) rotate(-53.93)"/><ellipse class="cls-12" cx="1089.51" cy="927.8" rx="6.58" ry="1.91" transform="translate(-337.4 819.37) rotate(-36.07)"/><circle class="cls-12" cx="1084.57" cy="920.84" r="4.38"/><circle class="cls-12" cx="1084.57" cy="920.84" r="2.08"/><path class="cls-10" d="M709.83,926.66a1.24,1.24,0,0,0,1.24-1.25V906.73a1.25,1.25,0,1,0-2.49,0v18.68A1.25,1.25,0,0,0,709.83,926.66Z"/><ellipse class="cls-10" cx="705.08" cy="914.47" rx="1.91" ry="6.58" transform="translate(-449.22 945.95) rotate(-53.93)"/><ellipse class="cls-10" cx="714.76" cy="910.3" rx="6.58" ry="1.91" transform="translate(-398.94 595.36) rotate(-36.07)"/><circle class="cls-16" cx="709.83" cy="903.34" r="4.38"/><circle class="cls-17" cx="709.83" cy="903.34" r="2.08"/><path class="cls-10" d="M931.68,975.31a.76.76,0,0,0,.76-.76V963.24a.76.76,0,1,0-1.51,0v11.31A.76.76,0,0,0,931.68,975.31Z"/><ellipse class="cls-10" cx="928.81" cy="967.93" rx="1.16" ry="3.99" transform="translate(-400.42 1148.76) rotate(-53.93)"/><ellipse class="cls-10" cx="934.67" cy="965.4" rx="3.99" ry="1.16" transform="matrix(0.81, -0.59, 0.59, 0.81, -389.23, 735.41)"/><circle class="cls-16" cx="931.68" cy="961.18" r="2.65"/><circle class="cls-17" cx="931.68" cy="961.18" r="1.26"/><circle class="cls-16" cx="464.42" cy="783.37" r="4.38"/><circle class="cls-17" cx="464.42" cy="783.37" r="2.08"/><circle class="cls-16" cx="351.28" cy="702.84" r="2.72"/><circle class="cls-17" cx="351.28" cy="702.84" r="1.29"/><circle class="cls-16" cx="235.55" cy="717.05" r="2.72"/><circle class="cls-17" cx="235.55" cy="717.05" r="1.29"/><circle class="cls-16" cx="519.78" cy="804.19" r="2.72"/><circle class="cls-17" cx="519.78" cy="804.19" r="1.29"/><ellipse class="cls-16" cx="214.26" cy="612.87" rx="1.43" ry="1.52"/><ellipse class="cls-17" cx="214.26" cy="612.87" rx="0.68" ry="0.72"/><circle class="cls-18" cx="1395.43" cy="973.22" r="4.38"/><circle class="cls-19" cx="1395.43" cy="973.22" r="2.08"/><path class="cls-10" d="M1185.18,987.84a1.25,1.25,0,0,0,1.25-1.25V967.9a1.25,1.25,0,0,0-2.49,0v18.69A1.24,1.24,0,0,0,1185.18,987.84Z"/><ellipse class="cls-10" cx="1180.43" cy="975.65" rx="1.91" ry="6.58" transform="translate(-303.2 1355.32) rotate(-53.93)"/><ellipse class="cls-10" cx="1190.12" cy="971.47" rx="6.58" ry="1.91" transform="translate(-343.83 886.98) rotate(-36.07)"/><circle class="cls-18" cx="1185.18" cy="963.04" r="4.38"/><circle class="cls-19" cx="1185.18" cy="963.04" r="2.08"/><path class="cls-10" d="M920.66,1013.54a.65.65,0,0,0,.65-.65v-9.78a.65.65,0,0,0-.65-.65.66.66,0,0,0-.66.65v9.78A.66.66,0,0,0,920.66,1013.54Z"/><ellipse class="cls-10" cx="918.17" cy="1007.16" rx="1" ry="3.45" transform="translate(-436.51 1156.3) rotate(-53.93)"/><ellipse class="cls-10" cx="923.24" cy="1004.98" rx="3.45" ry="1" transform="translate(-414.72 736.26) rotate(-36.07)"/><circle class="cls-18" cx="920.66" cy="1000.56" r="2.29"/><circle class="cls-19" cx="920.66" cy="1000.56" r="1.09"/><path class="cls-10" d="M890.86,948.47a.79.79,0,0,0,.8-.79v-12a.8.8,0,0,0-1.6,0v12A.79.79,0,0,0,890.86,948.47Z"/><ellipse class="cls-10" cx="887.82" cy="940.67" rx="1.23" ry="4.22" transform="translate(-395.25 1104.42) rotate(-53.93)"/><ellipse class="cls-10" cx="894.02" cy="937.99" rx="4.22" ry="1.23" transform="translate(-380.89 706.22) rotate(-36.07)"/><circle class="cls-18" cx="890.86" cy="932.59" r="2.8"/><circle class="cls-19" cx="890.86" cy="932.59" r="1.33"/><path class="cls-10" d="M520.29,881.83a1.24,1.24,0,0,0,1.24-1.24V861.9a1.25,1.25,0,1,0-2.49,0v18.69A1.25,1.25,0,0,0,520.29,881.83Z"/><ellipse class="cls-10" cx="515.54" cy="869.64" rx="1.91" ry="6.58" transform="translate(-490.92 774.31) rotate(-53.93)"/><ellipse class="cls-10" cx="525.22" cy="865.47" rx="6.58" ry="1.91" transform="translate(-408.89 475.17) rotate(-36.07)"/><circle class="cls-18" cx="520.29" cy="857.04" r="4.38"/><circle class="cls-19" cx="520.29" cy="857.04" r="2.08"/><circle class="cls-18" cx="284.81" cy="667.47" r="6.17"/><circle class="cls-19" cx="284.81" cy="667.47" r="2.93"/><circle class="cls-18" cx="295.76" cy="759.75" r="6.17"/><circle class="cls-19" cx="295.76" cy="759.75" r="2.93"/><circle class="cls-18" cx="107.37" cy="702.84" r="3.08"/><circle class="cls-19" cx="107.37" cy="702.84" r="1.47"/><circle class="cls-18" cx="178.1" cy="599.71" r="3.08"/><circle class="cls-19" cx="178.1" cy="599.71" r="1.47"/><circle class="cls-18" cx="650.56" cy="862.68" r="4.38"/><circle class="cls-19" cx="650.56" cy="862.68" r="2.08"/><circle class="cls-13" cx="1875.58" cy="797.68" r="4.47"/><path class="cls-13" d="M1717.89,948a5.83,5.83,0,1,0,5.83,5.83A5.84,5.84,0,0,0,1717.89,948Zm0,8.66a2.83,2.83,0,1,1,2.83-2.83A2.83,2.83,0,0,1,1717.89,956.61Z"/><path class="cls-13" d="M221.05,803a4.92,4.92,0,0,0-1.93.38,5.1,5.1,0,1,0,6.75,6.34,4.83,4.83,0,0,0,.27-1.62A5.1,5.1,0,0,0,221.05,803Zm0,7.2a2.1,2.1,0,1,1,2.09-2.1A2.1,2.1,0,0,1,221.05,810.16Z"/><path class="cls-13" d="M571.47,1043.15a6.25,6.25,0,0,0-6.24,6.24,5.77,5.77,0,0,0,.13,1.25,6.23,6.23,0,0,0,11,2.55,6.15,6.15,0,0,0,1.3-3.8A6.24,6.24,0,0,0,571.47,1043.15Zm0,9.48a3.25,3.25,0,1,1,1.31-.28A3.23,3.23,0,0,1,571.47,1052.63Z"/><path class="cls-11" d="M428.26,751.9a3,3,0,1,0,0,5.91,3.08,3.08,0,0,0,1-.16,3,3,0,0,0,1.6-1.34,2.9,2.9,0,0,0,.39-1.46A3,3,0,0,0,428.26,751.9Zm0,4.91a2,2,0,1,1,2-2A2,2,0,0,1,428.26,756.81Z"/><path class="cls-11" d="M442.84,786.77a1.7,1.7,0,1,0,1.69,1.69A1.7,1.7,0,0,0,442.84,786.77Zm0,2.81a1.12,1.12,0,1,1,1.12-1.12A1.13,1.13,0,0,1,442.84,789.58Z"/><path class="cls-15" d="M1573.25,973.75a5,5,0,0,1-2.46-9.36c7.63-4.29,15.2-9,23.16-14.31a5,5,0,0,1,5.57,8.31c-8.18,5.48-16,10.29-23.82,14.71A5,5,0,0,1,1573.25,973.75Z"/><path class="cls-15" d="M1616.78,945a5,5,0,0,1-3-9c10.16-7.56,20.2-15.52,29.92-23.21,16.59-13.14,33.74-26.72,52.24-39a5,5,0,0,1,5.53,8.34c-18.15,12-35.14,25.49-51.56,38.5-9.78,7.74-19.88,15.74-30.16,23.39A4.94,4.94,0,0,1,1616.78,945Z"/><path class="cls-15" d="M1799.76,833.62a5,5,0,0,1-1.65-9.72,567.16,567.16,0,0,1,93.31-23.72,5,5,0,1,1,1.64,9.86,556.81,556.81,0,0,0-91.65,23.3A5,5,0,0,1,1799.76,833.62Z"/><path class="cls-15" d="M1186.25,1077.75a5,5,0,0,1-1.5-9.78c8.18-2.55,16.88-5.08,25.87-7.51a5,5,0,0,1,2.6,9.66c-8.86,2.39-17.43,4.88-25.48,7.4A5.19,5.19,0,0,1,1186.25,1077.75Z"/><path class="cls-15" d="M1262.71,1058.22l-2.11-9.77c10.76-2.33,22.48-4.74,35.83-7.36l1.93,9.81C1285.07,1053.51,1273.41,1055.9,1262.71,1058.22Z"/><path class="cls-15" d="M1297.39,1051a5,5,0,0,1-1-9.91c13.22-2.6,26.75-5.16,39.83-7.63,22.57-4.26,45.9-8.67,68.51-13.45a5,5,0,0,1,2.07,9.78c-22.72,4.8-46.11,9.22-68.72,13.5-13.07,2.47-26.58,5-39.76,7.61A5.41,5.41,0,0,1,1297.39,1051Z"/><path class="cls-15" d="M1452.33,1019.16a5,5,0,0,1-1.23-9.85c13.87-3.53,26.48-7.09,38.54-10.88a5,5,0,1,1,3,9.54c-12.24,3.85-25,7.46-39.07,11A4.8,4.8,0,0,1,1452.33,1019.16Z"/><path class="cls-10" d="M1740.44,791.35l1.12-.33a13.27,13.27,0,0,1,7.7-15.83l-.47-1.57a13.27,13.27,0,0,1,8.88-16.52l17.14-5.14a13.27,13.27,0,0,1,16.52,8.88l2.05,6.84a13.25,13.25,0,0,1-.05,7.79l4.49-1.35a13.26,13.26,0,0,1,16.52,8.88l.66,2.2a13.26,13.26,0,0,1-8.89,16.52L1748.74,819a13.26,13.26,0,0,1-16.52-8.88l-.66-2.2A13.27,13.27,0,0,1,1740.44,791.35Z"/><path class="cls-10" d="M1477.41,971.17l.74-.29a8.9,8.9,0,0,1,4.3-11l-.41-1a8.93,8.93,0,0,1,5.06-11.56l11.21-4.38a8.92,8.92,0,0,1,11.56,5.06l1.75,4.47a9,9,0,0,1,.39,5.23l2.94-1.15a8.91,8.91,0,0,1,11.55,5.06l.57,1.43a8.93,8.93,0,0,1-5.06,11.56l-37.54,14.67a8.92,8.92,0,0,1-11.56-5.06l-.56-1.43A8.92,8.92,0,0,1,1477.41,971.17Z"/><path class="cls-13" d="M1538.8,773.75l.71-.35a8.9,8.9,0,0,1,3.34-11.35l-.49-1a8.92,8.92,0,0,1,4.05-11.95l10.79-5.32a8.91,8.91,0,0,1,12,4.05l2.12,4.3a8.88,8.88,0,0,1,.84,5.17l2.83-1.39a8.92,8.92,0,0,1,12,4.05l.68,1.38a8.92,8.92,0,0,1-4,11.95l-36.14,17.84a8.92,8.92,0,0,1-12-4.06l-.68-1.38A8.92,8.92,0,0,1,1538.8,773.75Z"/><path class="cls-13" d="M1185.07,927.61l-.75.25a8.92,8.92,0,0,0-10.32-5.8l-.34-1a8.92,8.92,0,0,0-11.24-5.72L1151,919a8.93,8.93,0,0,0-5.73,11.25l1.49,4.56a8.88,8.88,0,0,0,3,4.29l-3,1a8.92,8.92,0,0,0-5.72,11.24l.48,1.47a8.92,8.92,0,0,0,11.24,5.72l38.32-12.47a8.92,8.92,0,0,0,5.72-11.25l-.47-1.46A8.93,8.93,0,0,0,1185.07,927.61Z"/><path class="cls-12" d="M201,576.41l-.31-.07a3.61,3.61,0,0,0-2.42-4.13l.1-.43a3.61,3.61,0,0,0-2.76-4.29l-4.74-1a3.6,3.6,0,0,0-4.29,2.75l-.41,1.9a3.52,3.52,0,0,0,.18,2.11l-1.25-.28a3.61,3.61,0,0,0-4.29,2.76l-.13.61a3.6,3.6,0,0,0,2.76,4.28l15.9,3.46a3.59,3.59,0,0,0,4.28-2.75l.13-.61A3.59,3.59,0,0,0,201,576.41Z"/><path class="cls-15" d="M1442.58,1026.3a6.25,6.25,0,1,0,6.25,6.25A6.25,6.25,0,0,0,1442.58,1026.3Zm0,9.5a3.25,3.25,0,1,1,3.25-3.25A3.26,3.26,0,0,1,1442.58,1035.8Z"/><path class="cls-15" d="M1583.13,1058.79a4.86,4.86,0,1,0,4.86,4.85A4.86,4.86,0,0,0,1583.13,1058.79Zm0,6.71a1.86,1.86,0,1,1,1.86-1.86A1.85,1.85,0,0,1,1583.13,1065.5Z"/><ellipse class="cls-13" cx="967.96" cy="1042.89" rx="2.86" ry="8.49" transform="translate(-403.51 1421.9) rotate(-62.58)"/><ellipse class="cls-13" cx="972.28" cy="1012.34" rx="8.49" ry="2.86" transform="translate(-278.42 375.23) rotate(-19.16)"/><ellipse class="cls-13" cx="1055.92" cy="967.42" rx="8.19" ry="2.76" transform="translate(-278.5 447.62) rotate(-21.21)"/><ellipse class="cls-11" cx="1011.21" cy="977.59" rx="6.38" ry="2.15" transform="translate(-372.72 726.64) rotate(-33.75)"/><ellipse class="cls-13" cx="860.23" cy="1060.29" rx="2.76" ry="8.19" transform="matrix(0.8, -0.6, 0.6, 0.8, -463.43, 725.4)"/><circle class="cls-13" cx="1134.56" cy="1000.41" r="3.42"/><circle class="cls-13" cx="1123.28" cy="1018.29" r="1.71"/><circle class="cls-13" cx="813.77" cy="1007.88" r="3.49"/><path class="cls-13" d="M872.58,1028.34a4,4,0,1,0,4,4A4,4,0,0,0,872.58,1028.34Zm0,6a2,2,0,1,1,2-2A2,2,0,0,1,872.58,1034.29Z"/><path class="cls-13" d="M752.89,983.38a4.49,4.49,0,1,0,4.48,4.49A4.49,4.49,0,0,0,752.89,983.38Zm0,7a2.49,2.49,0,1,1,2.48-2.48A2.49,2.49,0,0,1,752.89,990.35Z"/><path class="cls-13" d="M1033.21,1060.19a3.9,3.9,0,1,0,3.89,3.89A3.9,3.9,0,0,0,1033.21,1060.19Zm0,5.79a1.9,1.9,0,1,1,1.89-1.9A1.9,1.9,0,0,1,1033.21,1066Z"/><path class="cls-13" d="M904,971.83a3.89,3.89,0,0,0-7.33-.8,3.8,3.8,0,0,0-.37,1.65,3.9,3.9,0,0,0,7.79,0A4,4,0,0,0,904,971.83Zm-3.8,2.74a1.9,1.9,0,0,1-1.9-1.89,1.94,1.94,0,0,1,1.9-1.9,1.87,1.87,0,0,1,1.54.81,1.84,1.84,0,0,1,.35,1.09A1.89,1.89,0,0,1,900.24,974.57Z"/><path class="cls-13" d="M830.78,930.4a6.09,6.09,0,0,0-6,5.52,5.12,5.12,0,0,0,0,.56,6.08,6.08,0,1,0,6.08-6.08Zm1.43,8.67a2.87,2.87,0,0,1-1.43.37,3,3,0,0,1-2.87-2.26,2.69,2.69,0,0,1-.09-.7,3,3,0,1,1,4.4,2.59Z"/><path class="cls-13" d="M745.35,979.09a3,3,0,0,1-.27-6,144.65,144.65,0,0,1,18.25-.64,3,3,0,0,1-.26,6,139.1,139.1,0,0,0-17.44.61Z"/><path class="cls-13" d="M858.65,1025.11a3,3,0,0,1-2.37-1.17,105.32,105.32,0,0,0-14.56-15.28,3,3,0,1,1,3.92-4.54A111.46,111.46,0,0,1,861,1020.27a3,3,0,0,1-2.37,4.84Z"/><path class="cls-13" d="M858.65,1025.11a3,3,0,0,1-2-5.21c10.24-9.43,26.19-12.74,39.7-8.24a3,3,0,1,1-1.89,5.69c-11.5-3.83-25.06-1-33.75,7A3,3,0,0,1,858.65,1025.11Z"/><path class="cls-13" d="M906.25,1030.47a3,3,0,0,1-2.56-1.43,31.12,31.12,0,0,0-2.64-3.66,3,3,0,0,1,4.61-3.85,37.12,37.12,0,0,1,3.14,4.37,3,3,0,0,1-1,4.12A2.93,2.93,0,0,1,906.25,1030.47Z"/><path class="cls-13" d="M928.75,1052.85a3,3,0,0,1-3-3.38c.36-2.81-1.81-5.2-4-6.5-2.65-1.6-6.58-2.35-9.37-.42a3,3,0,0,1-4.69-2.11,28.42,28.42,0,0,0-4.06-11.4,3,3,0,0,1,5.11-3.14,35.14,35.14,0,0,1,4.19,9.92,15.67,15.67,0,0,1,11.93,2,14.6,14.6,0,0,1,5.88,6.42,38.48,38.48,0,0,1,10.78-5.18,3,3,0,0,1,1.78,5.73,30.34,30.34,0,0,0-12.5,7.17A3,3,0,0,1,928.75,1052.85Z"/><path class="cls-13" d="M1035,1046.53a3,3,0,0,1-2.07-.84c-3.55-3.39-9-5-15-4.38a3,3,0,0,1-.6-6,26.47,26.47,0,0,1,15.3,2.79,11.12,11.12,0,0,1,.58-1.14,13.11,13.11,0,0,1,8-5.92c4.54-1.12,9,0,12.57,1.46a70,70,0,0,1,4.7-6.9,3,3,0,1,1,4.75,3.67,62.92,62.92,0,0,0-5.58,8.58,3,3,0,0,1-4.07,1.21c-2.83-1.53-7-3.16-10.93-2.19a7,7,0,0,0-4.29,3.12,3.57,3.57,0,0,0-.49,2.71,3,3,0,0,1-2.89,3.8Z"/><path class="cls-13" d="M1081.38,1012.34a3,3,0,0,1-1.56-5.57,84.29,84.29,0,0,1,17.81-8.12,3,3,0,0,1,1.84,5.71,78.49,78.49,0,0,0-16.54,7.55A3,3,0,0,1,1081.38,1012.34Z"/><path class="cls-13" d="M1098.54,1004.51a3,3,0,0,1-.92-5.86,83.13,83.13,0,0,1,17-3.58,3,3,0,0,1,.61,6,76.51,76.51,0,0,0-15.77,3.32A3,3,0,0,1,1098.54,1004.51Z"/><circle class="cls-10" cx="1441.19" cy="925.76" r="3.01"/><path class="cls-10" d="M1553.85,830.81a4.84,4.84,0,1,0,4.84,4.84A4.84,4.84,0,0,0,1553.85,830.81Zm0,7.67a2.84,2.84,0,1,1,2.84-2.83A2.83,2.83,0,0,1,1553.85,838.48Z"/><path class="cls-10" d="M1759.77,576.54a3.78,3.78,0,1,0,3.78,3.78A3.79,3.79,0,0,0,1759.77,576.54Zm0,5.56a1.78,1.78,0,1,1,1.78-1.78A1.78,1.78,0,0,1,1759.77,582.1Z"/><path class="cls-11" d="M1100.21,986.38a4.5,4.5,0,0,1-1.38-8.79c6.13-2,12.71-4,21.33-6.62a4.5,4.5,0,1,1,2.61,8.61c-8.57,2.6-15.1,4.62-21.18,6.58A4.42,4.42,0,0,1,1100.21,986.38Z"/><path class="cls-11" d="M1199.34,954.62a4.5,4.5,0,0,1-1.54-8.72c17.49-6.39,35.1-13.35,53.84-21.27a4.5,4.5,0,0,1,3.5,8.29c-18.87,8-36.62,15-54.25,21.43A4.4,4.4,0,0,1,1199.34,954.62Z"/><path class="cls-11" d="M1381.78,872.88a4.5,4.5,0,0,1-2-8.52q8-4.05,16-8.11a4.5,4.5,0,0,1,4.07,8q-8,4.07-16.06,8.11A4.45,4.45,0,0,1,1381.78,872.88Z"/><path class="cls-11" d="M1436.64,845a4.5,4.5,0,0,1-2.05-8.51l17.1-8.7a4.5,4.5,0,0,1,4.07,8q-8.55,4.33-17.08,8.69A4.57,4.57,0,0,1,1436.64,845Z"/><path class="cls-11" d="M1652.81,746a4.5,4.5,0,0,1-1.55-8.73c8.13-3,16.32-5.87,24.35-8.59a4.5,4.5,0,1,1,2.89,8.52c-8,2.7-16.08,5.57-24.14,8.52A4.42,4.42,0,0,1,1652.81,746Z"/><path class="cls-11" d="M1779.35,709.52a4.5,4.5,0,0,1-.9-8.91c11.78-2.4,23.61-4.51,35.19-6.28a4.5,4.5,0,0,1,1.36,8.9c-11.43,1.74-23.12,3.83-34.75,6.2A4.66,4.66,0,0,1,1779.35,709.52Z"/><path class="cls-11" d="M1855.14,698.34a4.5,4.5,0,0,1-.39-9c16-1.42,32-2.2,47.45-2.33h0a4.5,4.5,0,0,1,0,9c-15.23.12-31,.9-46.73,2.3Z"/><path class="cls-11" d="M1536.05,795.61a4.5,4.5,0,0,1-1.94-8.57c21.27-10.1,41-19,60.25-27.2a4.5,4.5,0,1,1,3.53,8.28c-19.16,8.15-38.76,17-59.92,27A4.41,4.41,0,0,1,1536.05,795.61Z"/><path class="cls-11" d="M856.82,991.38a5,5,0,0,1-3.62-1.55,127.49,127.49,0,0,0-27-21.3,5,5,0,0,1,5.13-8.59,137.8,137.8,0,0,1,29.09,23,5,5,0,0,1-3.61,8.46Z"/><path class="cls-11" d="M828.77,969.23a5,5,0,0,1-2.56-.7,139.38,139.38,0,0,0-17.85-9,5,5,0,0,1,3.85-9.23,149.57,149.57,0,0,1,19.13,9.64,5,5,0,0,1-2.57,9.29Z"/><path class="cls-11" d="M621.28,902.79a4.9,4.9,0,0,1-2.25-.54c-12.91-6.53-25.83-13.59-38.32-20.41l-11.6-6.32a5,5,0,0,1,4.77-8.79c3.88,2.1,7.75,4.22,11.62,6.33,12.43,6.79,25.28,13.8,38,20.27a5,5,0,0,1-2.26,9.46Z"/><path class="cls-11" d="M548.41,863.89a5,5,0,0,1-2.28-.55c-4.37-2.24-8.41-4.26-12.35-6.18a5,5,0,1,1,4.37-9c4,1.94,8.11,4,12.55,6.27a5,5,0,0,1-2.29,9.45Z"/><path class="cls-11" d="M536,857.66a5,5,0,0,1-2.18-.5c-5.62-2.74-10.87-5.18-16.06-7.47a5,5,0,1,1,4-9.15c5.3,2.35,10.66,4.84,16.39,7.63a5,5,0,0,1-2.19,9.49Z"/><path class="cls-11" d="M519.73,850.12a5,5,0,0,1-2-.43c-12.46-5.5-25.62-10.55-39.12-15a5,5,0,0,1,3.15-9.5c13.79,4.57,27.25,9.75,40,15.37a5,5,0,0,1-2,9.58Z"/><path class="cls-11" d="M480.17,834.92a5,5,0,0,1-1.57-.25c-10-3.33-20.54-6.42-31.19-9.19a5,5,0,0,1,2.52-9.68c10.86,2.82,21.57,6,31.82,9.37a5,5,0,0,1-1.58,9.75Z"/><path class="cls-11" d="M385.5,812.91a4.74,4.74,0,0,1-.75-.06c-7.1-1.06-14.45-2-21.83-2.91A5,5,0,1,1,364.1,800c7.48.88,14.93,1.88,22.13,3a5,5,0,0,1-.73,9.95Z"/><path class="cls-11" d="M363.51,810l-.59,0c-4.61-.55-9.38-1.07-14.18-1.56a5,5,0,0,1,1-10c4.86.49,9.69,1,14.36,1.58a5,5,0,0,1-.59,10Z"/><circle class="cls-11" cx="627.81" cy="917.26" r="3.93"/><circle class="cls-11" cx="1389.8" cy="890.7" r="3.93"/><circle class="cls-11" cx="1654.65" cy="1019.63" r="3.93"/><circle class="cls-11" cx="1634.89" cy="1032.55" r="1.96"/><circle class="cls-11" cx="1208.38" cy="1014.16" r="2.97"/><circle class="cls-10" cx="1352.35" cy="966.74" r="2.97"/><circle class="cls-11" cx="773.37" cy="936.69" r="3.93"/><circle class="cls-11" cx="1525.28" cy="934.02" r="3.93"/><circle class="cls-11" cx="1447.33" cy="945.01" r="3.93"/><circle class="cls-11" cx="1437.85" cy="957.56" r="1.96"/><circle class="cls-11" cx="1648.78" cy="823.02" r="3.93"/><circle class="cls-11" cx="1637.39" cy="813.91" r="1.96"/><circle class="cls-11" cx="1547.7" cy="855.76" r="2.34"/><circle class="cls-11" cx="1532.55" cy="849.5" r="3.35"/><circle class="cls-11" cx="468.32" cy="864.21" r="3.93"/><circle class="cls-11" cx="227.97" cy="853.95" r="3.93"/><circle class="cls-11" cx="243.88" cy="867.25" r="1.96"/><circle class="cls-11" cx="1858.52" cy="734.4" r="3.93"/><circle class="cls-11" cx="1837.17" cy="636.29" r="2.8"/><path class="cls-10" d="M544.89,881.64a3.9,3.9,0,0,0-3.81,3,3.29,3.29,0,0,0-.11.89,3.93,3.93,0,0,0,7.85,0v0A3.93,3.93,0,0,0,544.89,881.64Zm0,5.86a1.93,1.93,0,0,1-1.92-1.93,1.73,1.73,0,0,1,.12-.64,1.88,1.88,0,0,1,1.8-1.29,1.93,1.93,0,0,1,1.92,1.75,1.09,1.09,0,0,1,0,.18A1.93,1.93,0,0,1,544.89,887.5Z"/><path class="cls-11" d="M468.32,895a3.93,3.93,0,1,0,3.92,3.93A3.93,3.93,0,0,0,468.32,895Zm0,5.86a1.93,1.93,0,1,1,1.92-1.93A1.93,1.93,0,0,1,468.32,900.89Z"/><circle class="cls-10" cx="444.59" cy="840.63" r="1.96"/><circle class="cls-11" cx="448.64" cy="871.47" r="2.08"/><circle class="cls-11" cx="642.75" cy="926.66" r="2.57"/><path class="cls-13" d="M698.8,936.08a1.5,1.5,0,0,0,0-3,1.5,1.5,0,0,0,0,3Z"/><ellipse class="cls-13" cx="533.59" cy="821.99" rx="1.91" ry="6.58" transform="translate(-342.68 383.19) rotate(-30.41)"/><ellipse class="cls-13" cx="430.9" cy="792.13" rx="4.75" ry="1.38" transform="translate(-387.26 412.98) rotate(-36.59)"/><ellipse class="cls-13" cx="425.69" cy="790.99" rx="1.38" ry="4.75" transform="translate(-325.87 299.02) rotate(-28.5)"/><ellipse class="cls-11" cx="307.07" cy="713.53" rx="4.75" ry="1.38" transform="translate(-414.48 425.83) rotate(-44.98)"/><ellipse class="cls-11" cx="301.75" cy="713.16" rx="1.38" ry="4.75" transform="translate(-367.68 323.9) rotate(-36.89)"/><ellipse class="cls-11" cx="207.53" cy="652.44" rx="3.03" ry="0.88" transform="translate(-400.44 337.59) rotate(-44.98)"/><ellipse class="cls-11" cx="204.13" cy="652.21" rx="0.88" ry="3.03" transform="translate(-350.64 253.11) rotate(-36.89)"/><ellipse class="cls-11" cx="22.99" cy="589.42" rx="3.03" ry="0.88" transform="translate(-409.89 188.72) rotate(-44.98)"/><ellipse class="cls-11" cx="19.59" cy="589.19" rx="0.88" ry="3.03" transform="translate(-349.75 129.72) rotate(-36.89)"/><ellipse class="cls-11" cx="62.88" cy="568.11" rx="4.71" ry="1.37" transform="translate(-383.15 210.68) rotate(-44.98)"/><ellipse class="cls-11" cx="57.6" cy="567.75" rx="1.37" ry="4.71" transform="matrix(0.8, -0.6, 0.6, 0.8, -329.27, 148.24)"/><ellipse class="cls-12" cx="390.8" cy="700.12" rx="4.75" ry="1.38" transform="translate(-192.87 150.37) rotate(-17.54)"/><ellipse class="cls-12" cx="386.24" cy="697.34" rx="1.38" ry="4.75" transform="translate(-109.33 72.94) rotate(-9.46)"/><ellipse class="cls-12" cx="101.08" cy="553.73" rx="4.74" ry="1.25" transform="translate(-344.85 210.25) rotate(-42.05)"/><ellipse class="cls-12" cx="95.94" cy="553.48" rx="1.38" ry="4.28" transform="translate(-303.8 158.83) rotate(-35.53)"/><ellipse class="cls-12" cx="315.26" cy="653.41" rx="6.14" ry="1.62" transform="translate(-104.2 61.47) rotate(-9.57)"/><ellipse class="cls-12" cx="309.81" cy="649.56" rx="1.79" ry="5.55" transform="translate(-34.11 17.4) rotate(-3.05)"/><ellipse class="cls-13" cx="380.71" cy="786.77" rx="1.38" ry="4.75" transform="translate(-392.34 378.92) rotate(-36.36)"/><ellipse class="cls-13" cx="385.52" cy="786.77" rx="4.75" ry="1.38" transform="translate(-481.25 658.94) rotate(-55.51)"/><ellipse class="cls-13" cx="539.88" cy="824.8" rx="4.76" ry="1.38" transform="translate(-358.43 418.83) rotate(-32.47)"/><path class="cls-12" d="M1314.94,949.45a3.3,3.3,0,1,0,3.3,3.3A3.29,3.29,0,0,0,1314.94,949.45Zm0,4.59a1.3,1.3,0,1,1,1.3-1.29A1.29,1.29,0,0,1,1314.94,954Z"/><path class="cls-11" d="M1333.71,906.19a3.3,3.3,0,1,0,3.29,3.3A3.3,3.3,0,0,0,1333.71,906.19Zm0,5.59a2.3,2.3,0,1,1,2.29-2.29A2.3,2.3,0,0,1,1333.71,911.78Z"/><path class="cls-12" d="M260.47,616.69a.39.39,0,0,1-.39-.39v-5.86a.38.38,0,0,1,.39-.39.39.39,0,0,1,.39.39v5.86A.4.4,0,0,1,260.47,616.69Z"/><ellipse class="cls-12" cx="261.96" cy="612.87" rx="2.06" ry="0.6" transform="translate(-310.63 271.73) rotate(-36.07)"/><ellipse class="cls-12" cx="258.92" cy="611.56" rx="0.6" ry="2.06" transform="translate(-387.84 460.76) rotate(-53.93)"/><path class="cls-12" d="M232.11,598.17a.64.64,0,0,1-.64-.64v-9.59a.64.64,0,0,1,1.28,0v9.59A.64.64,0,0,1,232.11,598.17Z"/><ellipse class="cls-12" cx="234.55" cy="591.91" rx="3.38" ry="0.98" transform="translate(-303.55 251.58) rotate(-36.07)"/><ellipse class="cls-12" cx="229.58" cy="589.77" rx="0.98" ry="3.38" transform="translate(-382.3 428.08) rotate(-53.93)"/><ellipse class="cls-12" cx="230.53" cy="584.94" rx="1.42" ry="2.99" transform="translate(-378 426.86) rotate(-53.93)"/><ellipse class="cls-12" cx="233.69" cy="584.94" rx="2.99" ry="1.42" transform="translate(-299.6 249.74) rotate(-36.07)"/><circle class="cls-12" cx="260.47" cy="608.29" r="1.52"/><circle class="cls-13" cx="611.93" cy="854.52" r="2.16"/><circle class="cls-13" cx="597.73" cy="851.59" r="2.16"/><circle class="cls-13" cx="604.29" cy="850.33" r="2.16"/><path class="cls-13" d="M604.29,865.91a1.1,1.1,0,0,1-1.1-1.1V852.36a1.1,1.1,0,1,1,2.2,0v12.45A1.1,1.1,0,0,1,604.29,865.91Z"/><path class="cls-13" d="M604.29,860.13a1.1,1.1,0,0,1-.54-2l7-4a1.1,1.1,0,0,1,1.08,1.91l-7,4A1.14,1.14,0,0,1,604.29,860.13Z"/><path class="cls-13" d="M603.44,857.4a1.11,1.11,0,0,1-.7-.25l-4.78-4a1.1,1.1,0,0,1,1.4-1.69l4.79,4a1.1,1.1,0,0,1,.14,1.54A1.08,1.08,0,0,1,603.44,857.4Z"/><circle class="cls-12" cx="383.39" cy="684.52" r="2.16"/><circle class="cls-12" cx="369.19" cy="681.59" r="2.16"/><circle class="cls-12" cx="375.75" cy="680.33" r="2.16"/><path class="cls-12" d="M375.75,695.91a1.09,1.09,0,0,1-1.09-1.1V682.36a1.1,1.1,0,1,1,2.19,0v12.45A1.1,1.1,0,0,1,375.75,695.91Z"/><path class="cls-12" d="M375.75,690.13a1.1,1.1,0,0,1-.54-2l7-4a1.1,1.1,0,0,1,1.09,1.91l-7,4A1.07,1.07,0,0,1,375.75,690.13Z"/><path class="cls-12" d="M374.9,687.4a1.11,1.11,0,0,1-.7-.25l-4.78-4a1.1,1.1,0,0,1,1.4-1.69l4.79,4a1.1,1.1,0,0,1-.71,1.94Z"/><circle class="cls-11" cx="384.67" cy="719.93" r="1.37"/><circle class="cls-11" cx="387.41" cy="727.25" r="1.17"/><circle class="cls-11" cx="500.87" cy="792.31" r="2.08"/><circle class="cls-11" cx="462.34" cy="756.93" r="2.08"/><circle class="cls-11" cx="201.99" cy="679.43" r="2.08"/><circle class="cls-11" cx="332.93" cy="732.15" r="2.08"/><circle class="cls-11" cx="342.97" cy="725.42" r="3.5"/><circle class="cls-11" cx="261.98" cy="753.22" r="2.08"/><circle class="cls-11" cx="227.97" cy="624.3" r="2.08"/><circle class="cls-11" cx="163.24" cy="587.63" r="2.08"/><circle class="cls-11" cx="29.32" cy="572.55" r="2.08"/><circle class="cls-11" cx="51.45" cy="706.7" r="2.08"/><circle class="cls-12" cx="225.85" cy="493.81" r="2.25"/><circle class="cls-12" cx="212.71" cy="546.44" r="2.25"/><path class="cls-12" d="M240.19,519.08a3,3,0,0,0-2.83,2,2.83,2.83,0,0,0-.15.93,3,3,0,0,0,3,3,2.94,2.94,0,0,0,1.42-.36,3,3,0,0,0-1.42-5.6Zm.74,4.81a1.85,1.85,0,0,1-.74.15,2,2,0,0,1-2-2,1.75,1.75,0,0,1,0-.4,2,2,0,0,1,3.92.4A2,2,0,0,1,240.93,523.89Z"/><path class="cls-12" d="M175.73,530.24a2.11,2.11,0,1,0,2.11,2.11A2.11,2.11,0,0,0,175.73,530.24Zm0,3.22a1.11,1.11,0,1,1,1.11-1.11A1.11,1.11,0,0,1,175.73,533.46Z"/><circle class="cls-12" cx="179.23" cy="506.56" r="1.13"/><circle class="cls-12" cx="230.13" cy="498.15" r="1.13"/><ellipse class="cls-12" cx="209.84" cy="509.95" rx="3.68" ry="1.58" transform="translate(-313.87 337.28) rotate(-49.39)"/><ellipse class="cls-12" cx="170.52" cy="503.25" rx="3.68" ry="1.58" transform="translate(-195.57 118.13) rotate(-24.83)"/><ellipse class="cls-12" cx="232.27" cy="536.61" rx="1.58" ry="3.68" transform="translate(-210.12 154.26) rotate(-25.76)"/><ellipse class="cls-12" cx="168.29" cy="542.47" rx="3.68" ry="1.58" transform="translate(-389.42 434.96) rotate(-61.85)"/><circle class="cls-11" cx="1202.38" cy="904.6" r="3.03"/><circle class="cls-11" cx="1191.46" cy="918.56" r="4"/><circle class="cls-11" cx="1129.47" cy="939.95" r="2"/><circle class="cls-11" cx="1089.96" cy="951.05" r="2"/><circle class="cls-11" cx="1220.57" cy="967.93" r="2"/><circle class="cls-11" cx="1292.1" cy="880.14" r="2"/><circle class="cls-11" cx="958.08" cy="971.47" r="2"/><circle class="cls-11" cx="931.68" cy="1022.45" r="2"/><circle class="cls-11" cx="911.4" cy="940.67" r="2"/><circle class="cls-11" cx="784.49" cy="912.43" r="3.73"/><circle class="cls-11" cx="732.52" cy="925.64" r="1.35"/><circle class="cls-11" cx="794.62" cy="909.03" r="1.87"/><path class="cls-20" d="M916.78,401.66a45.66,45.66,0,0,1,7.24,7.59,27,27,0,0,1,4.5-7.62c2-2.16,5-3.65,8-3.12a30.94,30.94,0,0,0-11.66,13.86c.7-1.65-6.09-7.33-7.3-8.25-1.9-1.45-8.21-3.56-7.9-5.63C912.2,398.61,914.74,400.09,916.78,401.66Z"/><path class="cls-20" d="M991.73,385.23a45.28,45.28,0,0,1,7.23,7.6,26.75,26.75,0,0,1,4.51-7.63c2-2.16,5-3.65,7.94-3.12A30.89,30.89,0,0,0,999.76,396c.7-1.66-6.1-7.34-7.31-8.26-1.9-1.45-8.21-3.56-7.9-5.63C987.14,382.18,989.69,383.66,991.73,385.23Z"/><path class="cls-20" d="M950,415.05a32.23,32.23,0,0,1,5.06,5.31,18.81,18.81,0,0,1,3.15-5.33,6.37,6.37,0,0,1,5.55-2.18,21.63,21.63,0,0,0-8.15,9.69c.49-1.16-4.26-5.13-5.1-5.77-1.33-1-5.75-2.49-5.53-3.94A9.6,9.6,0,0,1,950,415.05Z"/><circle class="cls-12" cx="1109.18" cy="770.56" r="2.44"/><circle class="cls-12" cx="1046.4" cy="780.73" r="1.52"/><circle class="cls-12" cx="1048.94" cy="785.04" r="0.76"/><circle class="cls-12" cx="1044.12" cy="796.83" r="0.76"/><circle class="cls-12" cx="1029.6" cy="795.61" r="0.76"/><circle class="cls-12" cx="960.59" cy="780.33" r="1.92"/><circle class="cls-12" cx="892.39" cy="774.67" r="1.92"/><circle class="cls-12" cx="893.92" cy="780.08" r="0.96"/><circle class="cls-12" cx="891.48" cy="791.67" r="1.86"/><circle class="cls-12" cx="882.07" cy="782.68" r="1.64"/><circle class="cls-12" cx="878.93" cy="796.45" r="1.22"/><circle class="cls-12" cx="844.17" cy="783.86" r="1.38"/><circle class="cls-12" cx="846" cy="787.53" r="0.74"/><circle class="cls-12" cx="844.52" cy="792" r="0.74"/><circle class="cls-12" cx="832.03" cy="779.25" r="1.01"/><circle class="cls-12" cx="831.64" cy="782.21" r="0.51"/><circle class="cls-12" cx="834.81" cy="791.27" r="0.84"/><circle class="cls-12" cx="787.42" cy="766.45" r="1.57"/><circle class="cls-12" cx="789.83" cy="788.28" r="3.09"/><circle class="cls-12" cx="695.81" cy="775.23" r="1.49"/><circle class="cls-12" cx="697.35" cy="791.71" r="2.43"/><circle class="cls-12" cx="658.29" cy="777.95" r="1.31"/><circle class="cls-12" cx="660.03" cy="781.67" r="0.66"/><circle class="cls-12" cx="654.75" cy="791.09" r="1.75"/><circle class="cls-12" cx="598.77" cy="777.62" r="1.75"/><circle class="cls-12" cx="596.31" cy="781.76" r="0.81"/><circle class="cls-12" cx="586.08" cy="785.87" r="1.68"/><circle class="cls-12" cx="586.86" cy="790.21" r="0.62"/><circle class="cls-12" cx="582.46" cy="795.22" r="0.97"/><circle class="cls-12" cx="637.5" cy="790.21" r="0.4"/><circle class="cls-12" cx="638.33" cy="791.27" r="0.23"/><circle class="cls-12" cx="694.01" cy="783" r="1.08"/><circle class="cls-12" cx="786.95" cy="782.49" r="1.15"/><circle class="cls-12" cx="846.73" cy="798.23" r="1.3"/><circle class="cls-12" cx="880.43" cy="790.87" r="0.61"/><circle class="cls-12" cx="957.8" cy="784.68" r="0.87"/><circle class="cls-12" cx="963.32" cy="797.94" r="1.17"/><circle class="cls-12" cx="1031.33" cy="799.57" r="0.59"/><circle class="cls-12" cx="1027.86" cy="803.7" r="0.39"/><circle class="cls-12" cx="1103.07" cy="788.2" r="1.22"/><circle class="cls-12" cx="1134" cy="785.76" r="1.22"/><circle class="cls-12" cx="1135.22" cy="795.22" r="1.22"/><circle class="cls-12" cx="1180.37" cy="796.95" r="0.61"/><circle class="cls-12" cx="1175.55" cy="803.69" r="0.94"/><circle class="cls-12" cx="1178.61" cy="792.26" r="1.46"/><circle class="cls-12" cx="1207.21" cy="801.8" r="1.46"/><circle class="cls-12" cx="1199.81" cy="795.5" r="0.87"/><circle class="cls-12" cx="1203.95" cy="784.26" r="1.34"/><circle class="cls-12" cx="1288.51" cy="799.81" r="1.34"/><circle class="cls-12" cx="1280.92" cy="798.09" r="0.86"/><circle class="cls-12" cx="1281.88" cy="791.22" r="1.94"/><circle class="cls-12" cx="1313.43" cy="792.79" r="0.81"/><circle class="cls-12" cx="1310.61" cy="802.43" r="1.37"/><circle class="cls-12" cx="1395.29" cy="792.37" r="1.07"/><circle class="cls-12" cx="1456.28" cy="783.98" r="1.07"/><circle class="cls-12" cx="1457.35" cy="792.57" r="1.58"/><circle class="cls-12" cx="1482.79" cy="775.6" r="1.15"/><circle class="cls-12" cx="1485.37" cy="777.88" r="0.71"/><circle class="cls-12" cx="1480.2" cy="797.19" r="1.96"/><circle class="cls-12" cx="1482.75" cy="785.05" r="0.72"/><circle class="cls-12" cx="1487.81" cy="792.57" r="0.98"/><circle class="cls-12" cx="1453.91" cy="786.59" r="0.6"/><circle class="cls-12" cx="1393.54" cy="796.26" r="0.54"/><circle class="cls-12" cx="1396.63" cy="801.09" r="0.81"/><circle class="cls-12" cx="1313.21" cy="799.18" r="0.6"/><circle class="cls-12" cx="1287.17" cy="776.51" r="1.94"/><path class="cls-10" d="M1590.07,831a2.51,2.51,0,0,1-2-4l11.77-16.25a2.5,2.5,0,0,1,4,2.94l-11.77,16.24A2.49,2.49,0,0,1,1590.07,831Z"/><rect class="cls-14" x="1555.29" y="785.41" width="76.57" height="31.69" rx="15.84"/><rect class="cls-14" x="1564.16" y="770.46" width="34.49" height="31.69" rx="15.84"/><rect class="cls-14" x="1593.1" y="776.4" width="17.48" height="16.06" rx="8.03"/><path class="cls-10" d="M1590.07,856.18a2.5,2.5,0,0,1-2.5-2.5V803.23a2.5,2.5,0,0,1,5,0v50.45A2.49,2.49,0,0,1,1590.07,856.18Z"/><ellipse class="cls-13" cx="1574.8" cy="809.71" rx="0.86" ry="2.95" transform="translate(77.63 1755.28) rotate(-59.49)"/><ellipse class="cls-13" cx="1605.42" cy="792.06" rx="2.95" ry="0.86" transform="translate(20.13 1623.68) rotate(-53.94)"/><ellipse class="cls-13" cx="1613.71" cy="808.04" rx="0.86" ry="2.95" transform="translate(131.02 1836.92) rotate(-61.36)"/><circle class="cls-11" cx="1580.16" cy="782.16" r="1.05"/><path class="cls-13" d="M1579.11,797.38a1.93,1.93,0,1,0,1.93,1.93A1.93,1.93,0,0,0,1579.11,797.38Zm0,2.85a.93.93,0,0,1,0-1.85.93.93,0,1,1,0,1.85Z"/><circle class="cls-11" cx="1561.67" cy="798.12" r="1.05"/><circle class="cls-11" cx="1563.57" cy="793.43" r="0.77"/><circle class="cls-11" cx="1623.6" cy="793.38" r="1.25"/><circle class="cls-11" cx="1625.44" cy="797.61" r="0.63"/></svg>